<mxfile host="app.diagrams.net" modified="2023-10-08T19:17:44.682Z" agent="Mozilla/5.0 (X11; Linux x86_64; rv:109.0) Gecko/20100101 Firefox/116.0" etag="b-o8tjztxQdWkwLSQd-R" version="21.8.0" type="device" pages="11">
  <diagram id="Z-79qe5EpuRMToUv22pU" name="Página-2">
    <mxGraphModel dx="1234" dy="1114" grid="1" gridSize="10" guides="1" tooltips="1" connect="1" arrows="1" fold="1" page="1" pageScale="1" pageWidth="827" pageHeight="1169" math="0" shadow="0">
      <root>
        <mxCell id="0" />
        <mxCell id="1" parent="0" />
        <mxCell id="F9OcCnUBdM2bO17sIV7K-10" style="rounded=0;orthogonalLoop=1;jettySize=auto;html=1;" parent="1" source="F9OcCnUBdM2bO17sIV7K-1" target="F9OcCnUBdM2bO17sIV7K-4" edge="1">
          <mxGeometry relative="1" as="geometry" />
        </mxCell>
        <mxCell id="F9OcCnUBdM2bO17sIV7K-11" style="edgeStyle=none;rounded=0;orthogonalLoop=1;jettySize=auto;html=1;" parent="1" source="F9OcCnUBdM2bO17sIV7K-1" target="F9OcCnUBdM2bO17sIV7K-5" edge="1">
          <mxGeometry relative="1" as="geometry" />
        </mxCell>
        <mxCell id="F9OcCnUBdM2bO17sIV7K-12" style="edgeStyle=none;rounded=0;orthogonalLoop=1;jettySize=auto;html=1;" parent="1" source="F9OcCnUBdM2bO17sIV7K-1" target="F9OcCnUBdM2bO17sIV7K-6" edge="1">
          <mxGeometry relative="1" as="geometry" />
        </mxCell>
        <mxCell id="F9OcCnUBdM2bO17sIV7K-1" value="Input Manager" style="rounded=0;whiteSpace=wrap;html=1;" parent="1" vertex="1">
          <mxGeometry x="230" y="185" width="100" height="40" as="geometry" />
        </mxCell>
        <mxCell id="F9OcCnUBdM2bO17sIV7K-2" value="" style="endArrow=classic;html=1;rounded=0;" parent="1" source="F9OcCnUBdM2bO17sIV7K-3" target="F9OcCnUBdM2bO17sIV7K-1" edge="1">
          <mxGeometry width="50" height="50" relative="1" as="geometry">
            <mxPoint x="310" y="130" as="sourcePoint" />
            <mxPoint x="390" y="260" as="targetPoint" />
          </mxGeometry>
        </mxCell>
        <mxCell id="F9OcCnUBdM2bO17sIV7K-3" value="Real-time Inputs" style="text;html=1;align=center;verticalAlign=middle;resizable=0;points=[];autosize=1;strokeColor=none;fillColor=none;" parent="1" vertex="1">
          <mxGeometry x="60" y="190" width="110" height="30" as="geometry" />
        </mxCell>
        <mxCell id="F9OcCnUBdM2bO17sIV7K-18" style="edgeStyle=none;rounded=0;orthogonalLoop=1;jettySize=auto;html=1;" parent="1" source="F9OcCnUBdM2bO17sIV7K-4" target="F9OcCnUBdM2bO17sIV7K-16" edge="1">
          <mxGeometry relative="1" as="geometry" />
        </mxCell>
        <mxCell id="F9OcCnUBdM2bO17sIV7K-4" value="ML model" style="rounded=0;whiteSpace=wrap;html=1;" parent="1" vertex="1">
          <mxGeometry x="430" y="120" width="95" height="30" as="geometry" />
        </mxCell>
        <mxCell id="F9OcCnUBdM2bO17sIV7K-17" style="edgeStyle=none;rounded=0;orthogonalLoop=1;jettySize=auto;html=1;" parent="1" source="F9OcCnUBdM2bO17sIV7K-5" target="F9OcCnUBdM2bO17sIV7K-15" edge="1">
          <mxGeometry relative="1" as="geometry" />
        </mxCell>
        <mxCell id="F9OcCnUBdM2bO17sIV7K-5" value="ML model" style="rounded=0;whiteSpace=wrap;html=1;" parent="1" vertex="1">
          <mxGeometry x="430" y="190" width="95" height="30" as="geometry" />
        </mxCell>
        <mxCell id="F9OcCnUBdM2bO17sIV7K-13" style="edgeStyle=none;rounded=0;orthogonalLoop=1;jettySize=auto;html=1;" parent="1" source="F9OcCnUBdM2bO17sIV7K-6" edge="1">
          <mxGeometry relative="1" as="geometry">
            <mxPoint x="579.9999999999998" y="275" as="targetPoint" />
          </mxGeometry>
        </mxCell>
        <mxCell id="F9OcCnUBdM2bO17sIV7K-6" value="ML model" style="rounded=0;whiteSpace=wrap;html=1;" parent="1" vertex="1">
          <mxGeometry x="430" y="260" width="95" height="30" as="geometry" />
        </mxCell>
        <mxCell id="F9OcCnUBdM2bO17sIV7K-9" style="edgeStyle=orthogonalEdgeStyle;rounded=0;orthogonalLoop=1;jettySize=auto;html=1;exitX=0.5;exitY=1;exitDx=0;exitDy=0;" parent="1" source="F9OcCnUBdM2bO17sIV7K-5" target="F9OcCnUBdM2bO17sIV7K-5" edge="1">
          <mxGeometry relative="1" as="geometry" />
        </mxCell>
        <mxCell id="F9OcCnUBdM2bO17sIV7K-14" value="Output 3" style="text;html=1;align=center;verticalAlign=middle;resizable=0;points=[];autosize=1;strokeColor=none;fillColor=none;" parent="1" vertex="1">
          <mxGeometry x="580" y="260" width="70" height="30" as="geometry" />
        </mxCell>
        <mxCell id="F9OcCnUBdM2bO17sIV7K-15" value="Output 2" style="text;html=1;align=center;verticalAlign=middle;resizable=0;points=[];autosize=1;strokeColor=none;fillColor=none;" parent="1" vertex="1">
          <mxGeometry x="580" y="190" width="70" height="30" as="geometry" />
        </mxCell>
        <mxCell id="F9OcCnUBdM2bO17sIV7K-16" value="Output 1" style="text;html=1;align=center;verticalAlign=middle;resizable=0;points=[];autosize=1;strokeColor=none;fillColor=none;" parent="1" vertex="1">
          <mxGeometry x="580" y="120" width="70" height="30" as="geometry" />
        </mxCell>
      </root>
    </mxGraphModel>
  </diagram>
  <diagram id="wFPShHTj5-d6iuIxU1UK" name="Página-3">
    <mxGraphModel dx="1234" dy="1114" grid="1" gridSize="10" guides="1" tooltips="1" connect="1" arrows="1" fold="1" page="1" pageScale="1" pageWidth="827" pageHeight="1169" math="0" shadow="0">
      <root>
        <mxCell id="0" />
        <mxCell id="1" parent="0" />
        <mxCell id="Z5iRrQdZYCxzlLFy16hk-9" style="edgeStyle=orthogonalEdgeStyle;rounded=0;orthogonalLoop=1;jettySize=auto;html=1;entryX=0;entryY=0.5;entryDx=0;entryDy=0;startArrow=none;startFill=0;" parent="1" source="Z5iRrQdZYCxzlLFy16hk-1" target="Z5iRrQdZYCxzlLFy16hk-5" edge="1">
          <mxGeometry relative="1" as="geometry" />
        </mxCell>
        <mxCell id="Z5iRrQdZYCxzlLFy16hk-10" style="edgeStyle=orthogonalEdgeStyle;rounded=0;orthogonalLoop=1;jettySize=auto;html=1;startArrow=none;startFill=0;" parent="1" source="Z5iRrQdZYCxzlLFy16hk-1" target="Z5iRrQdZYCxzlLFy16hk-7" edge="1">
          <mxGeometry relative="1" as="geometry" />
        </mxCell>
        <mxCell id="Z5iRrQdZYCxzlLFy16hk-11" style="edgeStyle=orthogonalEdgeStyle;rounded=0;orthogonalLoop=1;jettySize=auto;html=1;entryX=0;entryY=0.5;entryDx=0;entryDy=0;startArrow=none;startFill=0;" parent="1" source="Z5iRrQdZYCxzlLFy16hk-1" target="Z5iRrQdZYCxzlLFy16hk-8" edge="1">
          <mxGeometry relative="1" as="geometry" />
        </mxCell>
        <mxCell id="Z5iRrQdZYCxzlLFy16hk-1" value="Input Handler" style="rounded=0;whiteSpace=wrap;html=1;fillColor=#dae8fc;strokeColor=#6c8ebf;" parent="1" vertex="1">
          <mxGeometry x="170" y="330" width="120" height="60" as="geometry" />
        </mxCell>
        <mxCell id="Z5iRrQdZYCxzlLFy16hk-2" value="" style="endArrow=classic;html=1;rounded=0;" parent="1" target="Z5iRrQdZYCxzlLFy16hk-1" edge="1">
          <mxGeometry width="50" height="50" relative="1" as="geometry">
            <mxPoint x="110" y="360" as="sourcePoint" />
            <mxPoint x="440" y="370" as="targetPoint" />
          </mxGeometry>
        </mxCell>
        <mxCell id="Z5iRrQdZYCxzlLFy16hk-3" value="Transaction&lt;br&gt;" style="text;html=1;align=center;verticalAlign=middle;resizable=0;points=[];autosize=1;strokeColor=none;fillColor=none;" parent="1" vertex="1">
          <mxGeometry x="30" y="345" width="90" height="30" as="geometry" />
        </mxCell>
        <mxCell id="Z5iRrQdZYCxzlLFy16hk-4" value="" style="rounded=0;whiteSpace=wrap;html=1;fillColor=#ffe6cc;strokeColor=#d79b00;" parent="1" vertex="1">
          <mxGeometry x="340" y="240" width="160" height="240" as="geometry" />
        </mxCell>
        <mxCell id="Z5iRrQdZYCxzlLFy16hk-5" value="ML model&lt;br&gt;(card 1)" style="rounded=0;whiteSpace=wrap;html=1;fillColor=#ffe6cc;strokeColor=#d79b00;" parent="1" vertex="1">
          <mxGeometry x="360" y="270" width="120" height="40" as="geometry" />
        </mxCell>
        <mxCell id="Z5iRrQdZYCxzlLFy16hk-7" value="ML model&lt;br&gt;(card 2)" style="rounded=0;whiteSpace=wrap;html=1;fillColor=#ffe6cc;strokeColor=#d79b00;" parent="1" vertex="1">
          <mxGeometry x="360" y="340" width="120" height="40" as="geometry" />
        </mxCell>
        <mxCell id="Z5iRrQdZYCxzlLFy16hk-8" value="ML model&lt;br&gt;(card 3)" style="rounded=0;whiteSpace=wrap;html=1;fillColor=#ffe6cc;strokeColor=#d79b00;" parent="1" vertex="1">
          <mxGeometry x="360" y="410" width="120" height="40" as="geometry" />
        </mxCell>
      </root>
    </mxGraphModel>
  </diagram>
  <diagram id="2nj4VdPFotCuttfdUVHC" name="Neuron">
    <mxGraphModel dx="1234" dy="1114" grid="1" gridSize="10" guides="1" tooltips="1" connect="1" arrows="1" fold="1" page="1" pageScale="1" pageWidth="827" pageHeight="1169" math="0" shadow="0">
      <root>
        <mxCell id="0" />
        <mxCell id="1" parent="0" />
        <mxCell id="4L7VcxTMgPafuFrG9DHQ-13" style="rounded=0;orthogonalLoop=1;jettySize=auto;html=1;" parent="1" source="4L7VcxTMgPafuFrG9DHQ-1" target="4L7VcxTMgPafuFrG9DHQ-18" edge="1">
          <mxGeometry relative="1" as="geometry" />
        </mxCell>
        <mxCell id="4L7VcxTMgPafuFrG9DHQ-34" value="w&lt;sub&gt;1&lt;/sub&gt;" style="edgeLabel;html=1;align=center;verticalAlign=middle;resizable=0;points=[];fontColor=#000000;" parent="4L7VcxTMgPafuFrG9DHQ-13" vertex="1" connectable="0">
          <mxGeometry x="0.3408" y="-1" relative="1" as="geometry">
            <mxPoint x="-42" y="-26" as="offset" />
          </mxGeometry>
        </mxCell>
        <mxCell id="4L7VcxTMgPafuFrG9DHQ-1" value="&lt;b&gt;X&lt;sub&gt;1&lt;/sub&gt;&lt;/b&gt;" style="ellipse;whiteSpace=wrap;html=1;aspect=fixed;" parent="1" vertex="1">
          <mxGeometry x="200" y="140" width="60" height="60" as="geometry" />
        </mxCell>
        <mxCell id="4L7VcxTMgPafuFrG9DHQ-14" style="edgeStyle=none;rounded=0;orthogonalLoop=1;jettySize=auto;html=1;" parent="1" source="4L7VcxTMgPafuFrG9DHQ-2" target="4L7VcxTMgPafuFrG9DHQ-18" edge="1">
          <mxGeometry relative="1" as="geometry" />
        </mxCell>
        <mxCell id="4L7VcxTMgPafuFrG9DHQ-33" value="w&lt;sub&gt;2&lt;/sub&gt;" style="edgeLabel;html=1;align=center;verticalAlign=middle;resizable=0;points=[];fontColor=#000000;" parent="4L7VcxTMgPafuFrG9DHQ-14" vertex="1" connectable="0">
          <mxGeometry x="0.2761" y="3" relative="1" as="geometry">
            <mxPoint x="-36" y="-2" as="offset" />
          </mxGeometry>
        </mxCell>
        <mxCell id="4L7VcxTMgPafuFrG9DHQ-2" value="&lt;b&gt;X&lt;span style=&quot;font-size: 10px;&quot;&gt;2&lt;/span&gt;&lt;/b&gt;" style="ellipse;whiteSpace=wrap;html=1;aspect=fixed;" parent="1" vertex="1">
          <mxGeometry x="200" y="220" width="60" height="60" as="geometry" />
        </mxCell>
        <mxCell id="4L7VcxTMgPafuFrG9DHQ-16" style="edgeStyle=none;rounded=0;orthogonalLoop=1;jettySize=auto;html=1;" parent="1" source="4L7VcxTMgPafuFrG9DHQ-3" target="4L7VcxTMgPafuFrG9DHQ-18" edge="1">
          <mxGeometry relative="1" as="geometry" />
        </mxCell>
        <mxCell id="4L7VcxTMgPafuFrG9DHQ-32" value="w&lt;sub&gt;n-1&lt;/sub&gt;" style="edgeLabel;html=1;align=center;verticalAlign=middle;resizable=0;points=[];fontColor=#000000;" parent="4L7VcxTMgPafuFrG9DHQ-16" vertex="1" connectable="0">
          <mxGeometry x="0.3357" y="-1" relative="1" as="geometry">
            <mxPoint x="-41" y="9" as="offset" />
          </mxGeometry>
        </mxCell>
        <mxCell id="4L7VcxTMgPafuFrG9DHQ-3" value="&lt;b&gt;X&lt;span style=&quot;font-size: 10px;&quot;&gt;n-1&lt;/span&gt;&lt;/b&gt;" style="ellipse;whiteSpace=wrap;html=1;aspect=fixed;" parent="1" vertex="1">
          <mxGeometry x="200" y="330" width="60" height="60" as="geometry" />
        </mxCell>
        <mxCell id="4L7VcxTMgPafuFrG9DHQ-17" style="edgeStyle=none;rounded=0;orthogonalLoop=1;jettySize=auto;html=1;" parent="1" source="4L7VcxTMgPafuFrG9DHQ-4" target="4L7VcxTMgPafuFrG9DHQ-18" edge="1">
          <mxGeometry relative="1" as="geometry" />
        </mxCell>
        <mxCell id="4L7VcxTMgPafuFrG9DHQ-35" value="w&lt;sub&gt;n&lt;/sub&gt;" style="edgeLabel;html=1;align=center;verticalAlign=middle;resizable=0;points=[];fontColor=#000000;" parent="4L7VcxTMgPafuFrG9DHQ-17" vertex="1" connectable="0">
          <mxGeometry x="0.3932" y="-1" relative="1" as="geometry">
            <mxPoint x="-48" y="28" as="offset" />
          </mxGeometry>
        </mxCell>
        <mxCell id="4L7VcxTMgPafuFrG9DHQ-4" value="&lt;b&gt;X&lt;span style=&quot;font-size: 10px;&quot;&gt;n&lt;/span&gt;&lt;/b&gt;" style="ellipse;whiteSpace=wrap;html=1;aspect=fixed;" parent="1" vertex="1">
          <mxGeometry x="200" y="420" width="60" height="60" as="geometry" />
        </mxCell>
        <mxCell id="4L7VcxTMgPafuFrG9DHQ-5" value="&lt;b&gt;...&lt;/b&gt;" style="text;html=1;align=center;verticalAlign=middle;resizable=0;points=[];autosize=1;strokeColor=none;fillColor=none;" parent="1" vertex="1">
          <mxGeometry x="215" y="290" width="30" height="30" as="geometry" />
        </mxCell>
        <mxCell id="4L7VcxTMgPafuFrG9DHQ-7" value="&lt;b&gt;Inputs&lt;/b&gt;" style="text;html=1;align=center;verticalAlign=middle;resizable=0;points=[];autosize=1;strokeColor=none;fillColor=none;" parent="1" vertex="1">
          <mxGeometry x="200" y="90" width="60" height="30" as="geometry" />
        </mxCell>
        <mxCell id="4L7VcxTMgPafuFrG9DHQ-28" style="edgeStyle=none;rounded=0;orthogonalLoop=1;jettySize=auto;html=1;fontColor=#000000;" parent="1" source="4L7VcxTMgPafuFrG9DHQ-18" target="4L7VcxTMgPafuFrG9DHQ-25" edge="1">
          <mxGeometry relative="1" as="geometry" />
        </mxCell>
        <mxCell id="4L7VcxTMgPafuFrG9DHQ-18" value="&lt;b style=&quot;font-family: arial, sans-serif; font-size: 16px; text-align: left; background-color: rgb(255, 255, 255);&quot;&gt;Σ&lt;/b&gt;" style="ellipse;whiteSpace=wrap;html=1;aspect=fixed;" parent="1" vertex="1">
          <mxGeometry x="440" y="270" width="80" height="80" as="geometry" />
        </mxCell>
        <mxCell id="4L7VcxTMgPafuFrG9DHQ-19" value="&lt;b&gt;Weights&lt;/b&gt;" style="text;html=1;align=center;verticalAlign=middle;resizable=0;points=[];autosize=1;strokeColor=none;fillColor=none;" parent="1" vertex="1">
          <mxGeometry x="320" y="180" width="70" height="30" as="geometry" />
        </mxCell>
        <mxCell id="4L7VcxTMgPafuFrG9DHQ-20" value="&lt;b&gt;Sum all&lt;br&gt;values&lt;br&gt;&lt;/b&gt;" style="text;html=1;align=center;verticalAlign=middle;resizable=0;points=[];autosize=1;strokeColor=none;fillColor=none;" parent="1" vertex="1">
          <mxGeometry x="445" y="226" width="70" height="40" as="geometry" />
        </mxCell>
        <mxCell id="4L7VcxTMgPafuFrG9DHQ-29" style="edgeStyle=none;rounded=0;orthogonalLoop=1;jettySize=auto;html=1;fontColor=#000000;" parent="1" source="4L7VcxTMgPafuFrG9DHQ-25" edge="1">
          <mxGeometry relative="1" as="geometry">
            <mxPoint x="710" y="310" as="targetPoint" />
          </mxGeometry>
        </mxCell>
        <mxCell id="4L7VcxTMgPafuFrG9DHQ-25" value="&lt;div style=&quot;text-align: left;&quot;&gt;&lt;font face=&quot;arial, sans-serif&quot;&gt;&lt;span style=&quot;font-size: 16px; background-color: rgb(255, 255, 255);&quot;&gt;&lt;b&gt;f(x)&lt;/b&gt;&lt;/span&gt;&lt;/font&gt;&lt;/div&gt;" style="ellipse;whiteSpace=wrap;html=1;aspect=fixed;" parent="1" vertex="1">
          <mxGeometry x="580" y="270" width="80" height="80" as="geometry" />
        </mxCell>
        <mxCell id="4L7VcxTMgPafuFrG9DHQ-27" value="&lt;b&gt;Activation&lt;br&gt;Function&lt;br&gt;&lt;/b&gt;" style="text;html=1;align=center;verticalAlign=middle;resizable=0;points=[];autosize=1;strokeColor=none;fillColor=none;" parent="1" vertex="1">
          <mxGeometry x="580" y="230" width="80" height="40" as="geometry" />
        </mxCell>
        <mxCell id="4L7VcxTMgPafuFrG9DHQ-30" value="&lt;b&gt;Output&lt;br&gt;&lt;/b&gt;" style="text;html=1;align=center;verticalAlign=middle;resizable=0;points=[];autosize=1;strokeColor=none;fillColor=none;" parent="1" vertex="1">
          <mxGeometry x="710" y="295" width="60" height="30" as="geometry" />
        </mxCell>
      </root>
    </mxGraphModel>
  </diagram>
  <diagram name="Multi layer perceptron" id="0F6RVim0hE-SMLiCecn1">
    <mxGraphModel dx="1234" dy="1114" grid="1" gridSize="10" guides="1" tooltips="1" connect="1" arrows="1" fold="1" page="1" pageScale="1" pageWidth="827" pageHeight="1169" math="0" shadow="0">
      <root>
        <mxCell id="uEP9N9sBV3F-JJgZDEUx-0" />
        <mxCell id="uEP9N9sBV3F-JJgZDEUx-1" parent="uEP9N9sBV3F-JJgZDEUx-0" />
        <mxCell id="uEP9N9sBV3F-JJgZDEUx-2" style="rounded=0;orthogonalLoop=1;jettySize=auto;html=1;" parent="uEP9N9sBV3F-JJgZDEUx-1" source="uEP9N9sBV3F-JJgZDEUx-4" target="uEP9N9sBV3F-JJgZDEUx-17" edge="1">
          <mxGeometry relative="1" as="geometry" />
        </mxCell>
        <mxCell id="uEP9N9sBV3F-JJgZDEUx-4" value="&lt;b&gt;X&lt;sub&gt;1&lt;/sub&gt;&lt;/b&gt;" style="ellipse;whiteSpace=wrap;html=1;aspect=fixed;" parent="uEP9N9sBV3F-JJgZDEUx-1" vertex="1">
          <mxGeometry x="200" y="140" width="60" height="60" as="geometry" />
        </mxCell>
        <mxCell id="uEP9N9sBV3F-JJgZDEUx-5" style="edgeStyle=none;rounded=0;orthogonalLoop=1;jettySize=auto;html=1;" parent="uEP9N9sBV3F-JJgZDEUx-1" source="uEP9N9sBV3F-JJgZDEUx-7" target="uEP9N9sBV3F-JJgZDEUx-17" edge="1">
          <mxGeometry relative="1" as="geometry" />
        </mxCell>
        <mxCell id="uEP9N9sBV3F-JJgZDEUx-7" value="&lt;b&gt;X&lt;span style=&quot;font-size: 10px;&quot;&gt;2&lt;/span&gt;&lt;/b&gt;" style="ellipse;whiteSpace=wrap;html=1;aspect=fixed;" parent="uEP9N9sBV3F-JJgZDEUx-1" vertex="1">
          <mxGeometry x="200" y="220" width="60" height="60" as="geometry" />
        </mxCell>
        <mxCell id="uEP9N9sBV3F-JJgZDEUx-8" style="edgeStyle=none;rounded=0;orthogonalLoop=1;jettySize=auto;html=1;" parent="uEP9N9sBV3F-JJgZDEUx-1" source="uEP9N9sBV3F-JJgZDEUx-10" target="uEP9N9sBV3F-JJgZDEUx-17" edge="1">
          <mxGeometry relative="1" as="geometry" />
        </mxCell>
        <mxCell id="uEP9N9sBV3F-JJgZDEUx-10" value="&lt;b&gt;X&lt;span style=&quot;font-size: 10px;&quot;&gt;n-1&lt;/span&gt;&lt;/b&gt;" style="ellipse;whiteSpace=wrap;html=1;aspect=fixed;" parent="uEP9N9sBV3F-JJgZDEUx-1" vertex="1">
          <mxGeometry x="200" y="330" width="60" height="60" as="geometry" />
        </mxCell>
        <mxCell id="uEP9N9sBV3F-JJgZDEUx-11" style="edgeStyle=none;rounded=0;orthogonalLoop=1;jettySize=auto;html=1;" parent="uEP9N9sBV3F-JJgZDEUx-1" source="uEP9N9sBV3F-JJgZDEUx-13" target="uEP9N9sBV3F-JJgZDEUx-17" edge="1">
          <mxGeometry relative="1" as="geometry" />
        </mxCell>
        <mxCell id="uEP9N9sBV3F-JJgZDEUx-13" value="&lt;b&gt;X&lt;span style=&quot;font-size: 10px;&quot;&gt;n&lt;/span&gt;&lt;/b&gt;" style="ellipse;whiteSpace=wrap;html=1;aspect=fixed;" parent="uEP9N9sBV3F-JJgZDEUx-1" vertex="1">
          <mxGeometry x="200" y="420" width="60" height="60" as="geometry" />
        </mxCell>
        <mxCell id="uEP9N9sBV3F-JJgZDEUx-14" value="&lt;b&gt;...&lt;/b&gt;" style="text;html=1;align=center;verticalAlign=middle;resizable=0;points=[];autosize=1;strokeColor=none;fillColor=none;" parent="uEP9N9sBV3F-JJgZDEUx-1" vertex="1">
          <mxGeometry x="215" y="290" width="30" height="30" as="geometry" />
        </mxCell>
        <mxCell id="uEP9N9sBV3F-JJgZDEUx-15" value="&lt;b&gt;Inputs&lt;/b&gt;" style="text;html=1;align=center;verticalAlign=middle;resizable=0;points=[];autosize=1;strokeColor=none;fillColor=none;" parent="uEP9N9sBV3F-JJgZDEUx-1" vertex="1">
          <mxGeometry x="200" y="90" width="60" height="30" as="geometry" />
        </mxCell>
        <mxCell id="uEP9N9sBV3F-JJgZDEUx-17" value="" style="ellipse;whiteSpace=wrap;html=1;aspect=fixed;" parent="uEP9N9sBV3F-JJgZDEUx-1" vertex="1">
          <mxGeometry x="440" y="275" width="60" height="60" as="geometry" />
        </mxCell>
        <mxCell id="bCtWuDSMhNNaJ5_07y0I-7" style="rounded=0;orthogonalLoop=1;jettySize=auto;html=1;strokeColor=#001DBC;fillColor=#0050ef;" parent="uEP9N9sBV3F-JJgZDEUx-1" source="uEP9N9sBV3F-JJgZDEUx-4" target="bCtWuDSMhNNaJ5_07y0I-15" edge="1">
          <mxGeometry relative="1" as="geometry">
            <mxPoint x="266.1959310604434" y="194.62098477792188" as="sourcePoint" />
          </mxGeometry>
        </mxCell>
        <mxCell id="bCtWuDSMhNNaJ5_07y0I-8" value="w&lt;font size=&quot;1&quot;&gt;&lt;sub&gt;0,0&lt;/sub&gt;&lt;/font&gt;" style="edgeLabel;html=1;align=center;verticalAlign=middle;resizable=0;points=[];fontColor=#3333FF;labelBackgroundColor=none;" parent="bCtWuDSMhNNaJ5_07y0I-7" vertex="1" connectable="0">
          <mxGeometry x="0.3408" y="-1" relative="1" as="geometry">
            <mxPoint x="-10" y="-10" as="offset" />
          </mxGeometry>
        </mxCell>
        <mxCell id="bCtWuDSMhNNaJ5_07y0I-9" style="edgeStyle=none;rounded=0;orthogonalLoop=1;jettySize=auto;html=1;fillColor=#0050ef;strokeColor=#001DBC;" parent="uEP9N9sBV3F-JJgZDEUx-1" source="uEP9N9sBV3F-JJgZDEUx-7" target="bCtWuDSMhNNaJ5_07y0I-15" edge="1">
          <mxGeometry relative="1" as="geometry">
            <mxPoint x="269.19159193657015" y="266.9174388475285" as="sourcePoint" />
          </mxGeometry>
        </mxCell>
        <mxCell id="bCtWuDSMhNNaJ5_07y0I-43" value="w&lt;font size=&quot;1&quot;&gt;&lt;sub&gt;0,1&lt;/sub&gt;&lt;/font&gt;" style="edgeLabel;html=1;align=center;verticalAlign=middle;resizable=0;points=[];fontColor=#3333FF;labelBackgroundColor=none;" parent="bCtWuDSMhNNaJ5_07y0I-9" vertex="1" connectable="0">
          <mxGeometry x="0.1606" y="-1" relative="1" as="geometry">
            <mxPoint y="-13" as="offset" />
          </mxGeometry>
        </mxCell>
        <mxCell id="bCtWuDSMhNNaJ5_07y0I-11" style="edgeStyle=none;rounded=0;orthogonalLoop=1;jettySize=auto;html=1;fillColor=#0050ef;strokeColor=#001DBC;" parent="uEP9N9sBV3F-JJgZDEUx-1" source="uEP9N9sBV3F-JJgZDEUx-10" target="bCtWuDSMhNNaJ5_07y0I-15" edge="1">
          <mxGeometry relative="1" as="geometry">
            <mxPoint x="269.4174202707277" y="364.11651594585464" as="sourcePoint" />
          </mxGeometry>
        </mxCell>
        <mxCell id="bCtWuDSMhNNaJ5_07y0I-44" value="w&lt;font size=&quot;1&quot;&gt;&lt;sub&gt;0,2&lt;/sub&gt;&lt;/font&gt;" style="edgeLabel;html=1;align=center;verticalAlign=middle;resizable=0;points=[];fontColor=#3333FF;labelBackgroundColor=none;" parent="bCtWuDSMhNNaJ5_07y0I-11" vertex="1" connectable="0">
          <mxGeometry x="0.4478" y="2" relative="1" as="geometry">
            <mxPoint x="9" y="-20" as="offset" />
          </mxGeometry>
        </mxCell>
        <mxCell id="bCtWuDSMhNNaJ5_07y0I-13" style="edgeStyle=none;rounded=0;orthogonalLoop=1;jettySize=auto;html=1;fillColor=#0050ef;strokeColor=#001DBC;" parent="uEP9N9sBV3F-JJgZDEUx-1" source="uEP9N9sBV3F-JJgZDEUx-13" target="bCtWuDSMhNNaJ5_07y0I-15" edge="1">
          <mxGeometry relative="1" as="geometry">
            <mxPoint x="266.1959310604434" y="445.3790152220781" as="sourcePoint" />
          </mxGeometry>
        </mxCell>
        <mxCell id="bCtWuDSMhNNaJ5_07y0I-45" value="w&lt;font size=&quot;1&quot;&gt;&lt;sub&gt;0,3&lt;/sub&gt;&lt;/font&gt;" style="edgeLabel;html=1;align=center;verticalAlign=middle;resizable=0;points=[];fontColor=#3333FF;" parent="bCtWuDSMhNNaJ5_07y0I-13" vertex="1" connectable="0">
          <mxGeometry x="0.6224" y="-2" relative="1" as="geometry">
            <mxPoint x="17" y="-2" as="offset" />
          </mxGeometry>
        </mxCell>
        <mxCell id="bCtWuDSMhNNaJ5_07y0I-15" value="" style="ellipse;whiteSpace=wrap;html=1;aspect=fixed;" parent="uEP9N9sBV3F-JJgZDEUx-1" vertex="1">
          <mxGeometry x="440" y="170" width="60" height="60" as="geometry" />
        </mxCell>
        <mxCell id="bCtWuDSMhNNaJ5_07y0I-29" style="rounded=0;orthogonalLoop=1;jettySize=auto;html=1;strokeColor=#FF1F1F;" parent="uEP9N9sBV3F-JJgZDEUx-1" source="uEP9N9sBV3F-JJgZDEUx-4" target="bCtWuDSMhNNaJ5_07y0I-37" edge="1">
          <mxGeometry relative="1" as="geometry">
            <mxPoint x="286.1959310604434" y="214.62098477792188" as="sourcePoint" />
          </mxGeometry>
        </mxCell>
        <mxCell id="bCtWuDSMhNNaJ5_07y0I-48" value="&lt;span style=&quot;background-color: rgb(248, 249, 250);&quot;&gt;w&lt;/span&gt;&lt;sub style=&quot;background-color: rgb(248, 249, 250);&quot;&gt;n,0&lt;/sub&gt;" style="edgeLabel;html=1;align=center;verticalAlign=middle;resizable=0;points=[];fontColor=#FF1F1F;" parent="bCtWuDSMhNNaJ5_07y0I-29" vertex="1" connectable="0">
          <mxGeometry x="0.7977" y="2" relative="1" as="geometry">
            <mxPoint x="10" y="-9" as="offset" />
          </mxGeometry>
        </mxCell>
        <mxCell id="bCtWuDSMhNNaJ5_07y0I-31" style="edgeStyle=none;rounded=0;orthogonalLoop=1;jettySize=auto;html=1;strokeColor=#FF1F1F;" parent="uEP9N9sBV3F-JJgZDEUx-1" source="uEP9N9sBV3F-JJgZDEUx-7" target="bCtWuDSMhNNaJ5_07y0I-37" edge="1">
          <mxGeometry relative="1" as="geometry">
            <mxPoint x="289.19159193657015" y="286.9174388475285" as="sourcePoint" />
          </mxGeometry>
        </mxCell>
        <mxCell id="bCtWuDSMhNNaJ5_07y0I-50" value="&lt;span style=&quot;background-color: rgb(248, 249, 250);&quot;&gt;w&lt;/span&gt;&lt;sub style=&quot;background-color: rgb(248, 249, 250);&quot;&gt;n,1&lt;/sub&gt;" style="edgeLabel;html=1;align=center;verticalAlign=middle;resizable=0;points=[];fontColor=#FF1F1F;" parent="bCtWuDSMhNNaJ5_07y0I-31" vertex="1" connectable="0">
          <mxGeometry x="0.6828" relative="1" as="geometry">
            <mxPoint as="offset" />
          </mxGeometry>
        </mxCell>
        <mxCell id="bCtWuDSMhNNaJ5_07y0I-33" style="edgeStyle=none;rounded=0;orthogonalLoop=1;jettySize=auto;html=1;fillColor=#e51400;strokeColor=#FF1F1F;" parent="uEP9N9sBV3F-JJgZDEUx-1" source="uEP9N9sBV3F-JJgZDEUx-10" target="bCtWuDSMhNNaJ5_07y0I-37" edge="1">
          <mxGeometry relative="1" as="geometry">
            <mxPoint x="289.4174202707277" y="384.11651594585464" as="sourcePoint" />
          </mxGeometry>
        </mxCell>
        <mxCell id="bCtWuDSMhNNaJ5_07y0I-47" value="&lt;span style=&quot;background-color: rgb(248, 249, 250);&quot;&gt;w&lt;/span&gt;&lt;sub style=&quot;background-color: rgb(248, 249, 250);&quot;&gt;n,2&lt;/sub&gt;" style="edgeLabel;html=1;align=center;verticalAlign=middle;resizable=0;points=[];fontColor=#FF1F1F;" parent="bCtWuDSMhNNaJ5_07y0I-33" vertex="1" connectable="0">
          <mxGeometry x="0.5507" y="-1" relative="1" as="geometry">
            <mxPoint as="offset" />
          </mxGeometry>
        </mxCell>
        <mxCell id="bCtWuDSMhNNaJ5_07y0I-35" style="edgeStyle=none;rounded=0;orthogonalLoop=1;jettySize=auto;html=1;strokeColor=#FF1F1F;" parent="uEP9N9sBV3F-JJgZDEUx-1" source="uEP9N9sBV3F-JJgZDEUx-13" target="bCtWuDSMhNNaJ5_07y0I-37" edge="1">
          <mxGeometry relative="1" as="geometry">
            <mxPoint x="286.1959310604434" y="465.3790152220781" as="sourcePoint" />
          </mxGeometry>
        </mxCell>
        <mxCell id="bCtWuDSMhNNaJ5_07y0I-46" value="&lt;font color=&quot;#ff1f1f&quot;&gt;w&lt;sub&gt;n,3&lt;/sub&gt;&lt;/font&gt;" style="edgeLabel;html=1;align=center;verticalAlign=middle;resizable=0;points=[];fontColor=#3333FF;labelBackgroundColor=none;" parent="bCtWuDSMhNNaJ5_07y0I-35" vertex="1" connectable="0">
          <mxGeometry x="0.6121" y="-2" relative="1" as="geometry">
            <mxPoint x="-1" y="5" as="offset" />
          </mxGeometry>
        </mxCell>
        <mxCell id="bCtWuDSMhNNaJ5_07y0I-37" value="" style="ellipse;whiteSpace=wrap;html=1;aspect=fixed;" parent="uEP9N9sBV3F-JJgZDEUx-1" vertex="1">
          <mxGeometry x="440" y="370" width="60" height="60" as="geometry" />
        </mxCell>
        <mxCell id="bCtWuDSMhNNaJ5_07y0I-40" value="&lt;b&gt;Weights&lt;/b&gt;" style="text;html=1;align=center;verticalAlign=middle;resizable=0;points=[];autosize=1;strokeColor=none;fillColor=none;" parent="uEP9N9sBV3F-JJgZDEUx-1" vertex="1">
          <mxGeometry x="310" y="125" width="70" height="30" as="geometry" />
        </mxCell>
        <mxCell id="bCtWuDSMhNNaJ5_07y0I-41" value="&lt;b&gt;Sum +&lt;br&gt;Activation function&lt;br&gt;&lt;/b&gt;" style="text;html=1;align=center;verticalAlign=middle;resizable=0;points=[];autosize=1;strokeColor=none;fillColor=none;" parent="uEP9N9sBV3F-JJgZDEUx-1" vertex="1">
          <mxGeometry x="405" y="120" width="130" height="40" as="geometry" />
        </mxCell>
      </root>
    </mxGraphModel>
  </diagram>
  <diagram id="IVXsrarJLs8Fvj0dcI7l" name="MOdel">
    <mxGraphModel dx="1234" dy="1114" grid="1" gridSize="10" guides="1" tooltips="1" connect="1" arrows="1" fold="1" page="1" pageScale="1" pageWidth="827" pageHeight="1169" math="0" shadow="0">
      <root>
        <mxCell id="0" />
        <mxCell id="1" parent="0" />
        <mxCell id="77n7smFmbkxoOB3_a18F-1" style="edgeStyle=orthogonalEdgeStyle;rounded=0;orthogonalLoop=1;jettySize=auto;html=1;" edge="1" parent="1" source="8-03zTVNs8AEeZNgWgcP-5" target="8-03zTVNs8AEeZNgWgcP-11">
          <mxGeometry relative="1" as="geometry" />
        </mxCell>
        <mxCell id="8-03zTVNs8AEeZNgWgcP-5" value="Transaction" style="text;html=1;align=center;verticalAlign=middle;resizable=0;points=[];autosize=1;strokeColor=none;fillColor=none;" parent="1" vertex="1">
          <mxGeometry x="330" y="290" width="90" height="30" as="geometry" />
        </mxCell>
        <mxCell id="8-03zTVNs8AEeZNgWgcP-19" style="edgeStyle=orthogonalEdgeStyle;rounded=0;orthogonalLoop=1;jettySize=auto;html=1;" parent="1" source="8-03zTVNs8AEeZNgWgcP-11" target="8-03zTVNs8AEeZNgWgcP-15" edge="1">
          <mxGeometry relative="1" as="geometry" />
        </mxCell>
        <mxCell id="8-03zTVNs8AEeZNgWgcP-20" style="edgeStyle=orthogonalEdgeStyle;rounded=0;orthogonalLoop=1;jettySize=auto;html=1;" parent="1" source="8-03zTVNs8AEeZNgWgcP-11" target="8-03zTVNs8AEeZNgWgcP-18" edge="1">
          <mxGeometry relative="1" as="geometry" />
        </mxCell>
        <mxCell id="8-03zTVNs8AEeZNgWgcP-11" value="Feature Vector" style="rounded=0;whiteSpace=wrap;html=1;fillColor=#dae8fc;strokeColor=#6c8ebf;" parent="1" vertex="1">
          <mxGeometry x="130" y="360" width="490" height="30" as="geometry" />
        </mxCell>
        <mxCell id="8-03zTVNs8AEeZNgWgcP-23" style="edgeStyle=orthogonalEdgeStyle;rounded=0;orthogonalLoop=1;jettySize=auto;html=1;entryX=0.233;entryY=0.011;entryDx=0;entryDy=0;entryPerimeter=0;" parent="1" source="8-03zTVNs8AEeZNgWgcP-15" target="8-03zTVNs8AEeZNgWgcP-22" edge="1">
          <mxGeometry relative="1" as="geometry" />
        </mxCell>
        <mxCell id="8-03zTVNs8AEeZNgWgcP-15" value="GRU&lt;br&gt;Category state" style="rounded=0;whiteSpace=wrap;html=1;fillColor=#ffe6cc;strokeColor=#d79b00;" parent="1" vertex="1">
          <mxGeometry x="130" y="440" width="230" height="60" as="geometry" />
        </mxCell>
        <mxCell id="8-03zTVNs8AEeZNgWgcP-24" style="edgeStyle=orthogonalEdgeStyle;rounded=0;orthogonalLoop=1;jettySize=auto;html=1;entryX=0.767;entryY=0.039;entryDx=0;entryDy=0;entryPerimeter=0;" parent="1" source="8-03zTVNs8AEeZNgWgcP-18" target="8-03zTVNs8AEeZNgWgcP-22" edge="1">
          <mxGeometry relative="1" as="geometry" />
        </mxCell>
        <mxCell id="8-03zTVNs8AEeZNgWgcP-18" value="GRU&lt;br&gt;Credit card state" style="rounded=0;whiteSpace=wrap;html=1;fillColor=#ffe6cc;strokeColor=#d79b00;" parent="1" vertex="1">
          <mxGeometry x="390" y="440" width="230" height="60" as="geometry" />
        </mxCell>
        <mxCell id="8-03zTVNs8AEeZNgWgcP-27" style="edgeStyle=orthogonalEdgeStyle;rounded=0;orthogonalLoop=1;jettySize=auto;html=1;" parent="1" source="8-03zTVNs8AEeZNgWgcP-22" target="8-03zTVNs8AEeZNgWgcP-26" edge="1">
          <mxGeometry relative="1" as="geometry" />
        </mxCell>
        <mxCell id="8-03zTVNs8AEeZNgWgcP-22" value="Concatenated GRU outputs" style="rounded=0;whiteSpace=wrap;html=1;fillColor=#dae8fc;strokeColor=#6c8ebf;" parent="1" vertex="1">
          <mxGeometry x="130" y="549" width="490" height="30" as="geometry" />
        </mxCell>
        <mxCell id="8-03zTVNs8AEeZNgWgcP-31" style="edgeStyle=orthogonalEdgeStyle;rounded=0;orthogonalLoop=1;jettySize=auto;html=1;" parent="1" source="8-03zTVNs8AEeZNgWgcP-26" edge="1">
          <mxGeometry relative="1" as="geometry">
            <mxPoint x="375" y="684" as="targetPoint" />
          </mxGeometry>
        </mxCell>
        <mxCell id="8-03zTVNs8AEeZNgWgcP-26" value="Classifier" style="rounded=0;whiteSpace=wrap;html=1;fillColor=#d5e8d4;strokeColor=#82b366;" parent="1" vertex="1">
          <mxGeometry x="170" y="614" width="410" height="30" as="geometry" />
        </mxCell>
        <mxCell id="8-03zTVNs8AEeZNgWgcP-32" value="Output = Fraud / not Fraud" style="text;html=1;align=center;verticalAlign=middle;resizable=0;points=[];autosize=1;strokeColor=none;fillColor=none;" parent="1" vertex="1">
          <mxGeometry x="290" y="694" width="170" height="30" as="geometry" />
        </mxCell>
      </root>
    </mxGraphModel>
  </diagram>
  <diagram id="SHXT_kevnbteHkld_K8I" name="Neural Network">
    <mxGraphModel dx="1234" dy="1114" grid="1" gridSize="10" guides="1" tooltips="1" connect="1" arrows="1" fold="1" page="1" pageScale="1" pageWidth="827" pageHeight="1169" math="0" shadow="0">
      <root>
        <mxCell id="0" />
        <mxCell id="1" parent="0" />
        <mxCell id="pH3Lkx8oJmKcSYAg8tj6-1" style="rounded=0;orthogonalLoop=1;jettySize=auto;html=1;" parent="1" source="pH3Lkx8oJmKcSYAg8tj6-2" target="pH3Lkx8oJmKcSYAg8tj6-11" edge="1">
          <mxGeometry relative="1" as="geometry" />
        </mxCell>
        <mxCell id="pH3Lkx8oJmKcSYAg8tj6-2" value="&lt;b&gt;X&lt;sub&gt;1&lt;/sub&gt;&lt;/b&gt;" style="ellipse;whiteSpace=wrap;html=1;aspect=fixed;" parent="1" vertex="1">
          <mxGeometry x="130" y="160" width="60" height="60" as="geometry" />
        </mxCell>
        <mxCell id="pH3Lkx8oJmKcSYAg8tj6-3" style="edgeStyle=none;rounded=0;orthogonalLoop=1;jettySize=auto;html=1;" parent="1" source="pH3Lkx8oJmKcSYAg8tj6-4" target="pH3Lkx8oJmKcSYAg8tj6-11" edge="1">
          <mxGeometry relative="1" as="geometry" />
        </mxCell>
        <mxCell id="pH3Lkx8oJmKcSYAg8tj6-4" value="&lt;b&gt;X&lt;span style=&quot;font-size: 10px;&quot;&gt;2&lt;/span&gt;&lt;/b&gt;" style="ellipse;whiteSpace=wrap;html=1;aspect=fixed;" parent="1" vertex="1">
          <mxGeometry x="130" y="240" width="60" height="60" as="geometry" />
        </mxCell>
        <mxCell id="pH3Lkx8oJmKcSYAg8tj6-5" style="edgeStyle=none;rounded=0;orthogonalLoop=1;jettySize=auto;html=1;" parent="1" source="pH3Lkx8oJmKcSYAg8tj6-6" target="pH3Lkx8oJmKcSYAg8tj6-11" edge="1">
          <mxGeometry relative="1" as="geometry" />
        </mxCell>
        <mxCell id="pH3Lkx8oJmKcSYAg8tj6-6" value="&lt;b&gt;X&lt;span style=&quot;font-size: 10px;&quot;&gt;n-1&lt;/span&gt;&lt;/b&gt;" style="ellipse;whiteSpace=wrap;html=1;aspect=fixed;" parent="1" vertex="1">
          <mxGeometry x="130" y="350" width="60" height="60" as="geometry" />
        </mxCell>
        <mxCell id="pH3Lkx8oJmKcSYAg8tj6-7" style="edgeStyle=none;rounded=0;orthogonalLoop=1;jettySize=auto;html=1;" parent="1" source="pH3Lkx8oJmKcSYAg8tj6-8" target="pH3Lkx8oJmKcSYAg8tj6-11" edge="1">
          <mxGeometry relative="1" as="geometry" />
        </mxCell>
        <mxCell id="pH3Lkx8oJmKcSYAg8tj6-8" value="&lt;b&gt;X&lt;span style=&quot;font-size: 10px;&quot;&gt;n&lt;/span&gt;&lt;/b&gt;" style="ellipse;whiteSpace=wrap;html=1;aspect=fixed;" parent="1" vertex="1">
          <mxGeometry x="130" y="440" width="60" height="60" as="geometry" />
        </mxCell>
        <mxCell id="pH3Lkx8oJmKcSYAg8tj6-9" value="&lt;b&gt;...&lt;/b&gt;" style="text;html=1;align=center;verticalAlign=middle;resizable=0;points=[];autosize=1;strokeColor=none;fillColor=none;" parent="1" vertex="1">
          <mxGeometry x="145" y="310" width="30" height="30" as="geometry" />
        </mxCell>
        <mxCell id="pH3Lkx8oJmKcSYAg8tj6-10" value="&lt;b&gt;Input&lt;br&gt;Layer&lt;br&gt;&lt;/b&gt;" style="text;html=1;align=center;verticalAlign=middle;resizable=0;points=[];autosize=1;strokeColor=none;fillColor=none;" parent="1" vertex="1">
          <mxGeometry x="130" y="115" width="60" height="40" as="geometry" />
        </mxCell>
        <mxCell id="pH3Lkx8oJmKcSYAg8tj6-36" style="edgeStyle=none;rounded=0;orthogonalLoop=1;jettySize=auto;html=1;strokeColor=#000000;fontColor=#FF1F1F;targetPerimeterSpacing=8;" parent="1" source="pH3Lkx8oJmKcSYAg8tj6-11" target="pH3Lkx8oJmKcSYAg8tj6-33" edge="1">
          <mxGeometry relative="1" as="geometry" />
        </mxCell>
        <mxCell id="pH3Lkx8oJmKcSYAg8tj6-11" value="" style="ellipse;whiteSpace=wrap;html=1;aspect=fixed;" parent="1" vertex="1">
          <mxGeometry x="370" y="290" width="60" height="60" as="geometry" />
        </mxCell>
        <mxCell id="pH3Lkx8oJmKcSYAg8tj6-12" style="rounded=0;orthogonalLoop=1;jettySize=auto;html=1;strokeColor=#000000;fillColor=#0050ef;" parent="1" source="pH3Lkx8oJmKcSYAg8tj6-2" target="pH3Lkx8oJmKcSYAg8tj6-20" edge="1">
          <mxGeometry relative="1" as="geometry">
            <mxPoint x="196.1959310604434" y="214.62098477792188" as="sourcePoint" />
          </mxGeometry>
        </mxCell>
        <mxCell id="pH3Lkx8oJmKcSYAg8tj6-14" style="edgeStyle=none;rounded=0;orthogonalLoop=1;jettySize=auto;html=1;fillColor=#0050ef;strokeColor=#000000;" parent="1" source="pH3Lkx8oJmKcSYAg8tj6-4" target="pH3Lkx8oJmKcSYAg8tj6-20" edge="1">
          <mxGeometry relative="1" as="geometry">
            <mxPoint x="199.19159193657015" y="286.9174388475285" as="sourcePoint" />
          </mxGeometry>
        </mxCell>
        <mxCell id="pH3Lkx8oJmKcSYAg8tj6-16" style="edgeStyle=none;rounded=0;orthogonalLoop=1;jettySize=auto;html=1;fillColor=#0050ef;strokeColor=#000000;" parent="1" source="pH3Lkx8oJmKcSYAg8tj6-6" target="pH3Lkx8oJmKcSYAg8tj6-20" edge="1">
          <mxGeometry relative="1" as="geometry">
            <mxPoint x="199.4174202707277" y="384.11651594585464" as="sourcePoint" />
          </mxGeometry>
        </mxCell>
        <mxCell id="pH3Lkx8oJmKcSYAg8tj6-18" style="edgeStyle=none;rounded=0;orthogonalLoop=1;jettySize=auto;html=1;fillColor=#0050ef;strokeColor=#000000;" parent="1" source="pH3Lkx8oJmKcSYAg8tj6-8" target="pH3Lkx8oJmKcSYAg8tj6-20" edge="1">
          <mxGeometry relative="1" as="geometry">
            <mxPoint x="196.1959310604434" y="465.3790152220781" as="sourcePoint" />
          </mxGeometry>
        </mxCell>
        <mxCell id="pH3Lkx8oJmKcSYAg8tj6-35" style="edgeStyle=none;rounded=0;orthogonalLoop=1;jettySize=auto;html=1;strokeColor=#000000;fontColor=#FF1F1F;targetPerimeterSpacing=8;" parent="1" source="pH3Lkx8oJmKcSYAg8tj6-20" target="pH3Lkx8oJmKcSYAg8tj6-33" edge="1">
          <mxGeometry relative="1" as="geometry" />
        </mxCell>
        <mxCell id="pH3Lkx8oJmKcSYAg8tj6-20" value="" style="ellipse;whiteSpace=wrap;html=1;aspect=fixed;" parent="1" vertex="1">
          <mxGeometry x="370" y="200" width="60" height="60" as="geometry" />
        </mxCell>
        <mxCell id="pH3Lkx8oJmKcSYAg8tj6-21" style="rounded=0;orthogonalLoop=1;jettySize=auto;html=1;strokeColor=#000000;" parent="1" source="pH3Lkx8oJmKcSYAg8tj6-2" target="pH3Lkx8oJmKcSYAg8tj6-29" edge="1">
          <mxGeometry relative="1" as="geometry">
            <mxPoint x="216.1959310604434" y="234.62098477792188" as="sourcePoint" />
          </mxGeometry>
        </mxCell>
        <mxCell id="pH3Lkx8oJmKcSYAg8tj6-23" style="edgeStyle=none;rounded=0;orthogonalLoop=1;jettySize=auto;html=1;strokeColor=#000000;" parent="1" source="pH3Lkx8oJmKcSYAg8tj6-4" target="pH3Lkx8oJmKcSYAg8tj6-29" edge="1">
          <mxGeometry relative="1" as="geometry">
            <mxPoint x="219.19159193657015" y="306.9174388475285" as="sourcePoint" />
          </mxGeometry>
        </mxCell>
        <mxCell id="pH3Lkx8oJmKcSYAg8tj6-25" style="edgeStyle=none;rounded=0;orthogonalLoop=1;jettySize=auto;html=1;fillColor=#e51400;strokeColor=#000000;" parent="1" source="pH3Lkx8oJmKcSYAg8tj6-6" target="pH3Lkx8oJmKcSYAg8tj6-29" edge="1">
          <mxGeometry relative="1" as="geometry">
            <mxPoint x="219.4174202707277" y="404.11651594585464" as="sourcePoint" />
          </mxGeometry>
        </mxCell>
        <mxCell id="pH3Lkx8oJmKcSYAg8tj6-27" style="edgeStyle=none;rounded=0;orthogonalLoop=1;jettySize=auto;html=1;strokeColor=#000000;" parent="1" source="pH3Lkx8oJmKcSYAg8tj6-8" target="pH3Lkx8oJmKcSYAg8tj6-29" edge="1">
          <mxGeometry relative="1" as="geometry">
            <mxPoint x="216.1959310604434" y="485.3790152220781" as="sourcePoint" />
          </mxGeometry>
        </mxCell>
        <mxCell id="pH3Lkx8oJmKcSYAg8tj6-37" style="edgeStyle=none;rounded=0;orthogonalLoop=1;jettySize=auto;html=1;strokeColor=#000000;fontColor=#FF1F1F;targetPerimeterSpacing=8;" parent="1" source="pH3Lkx8oJmKcSYAg8tj6-29" target="pH3Lkx8oJmKcSYAg8tj6-33" edge="1">
          <mxGeometry relative="1" as="geometry" />
        </mxCell>
        <mxCell id="pH3Lkx8oJmKcSYAg8tj6-29" value="" style="ellipse;whiteSpace=wrap;html=1;aspect=fixed;" parent="1" vertex="1">
          <mxGeometry x="370" y="380" width="60" height="60" as="geometry" />
        </mxCell>
        <mxCell id="pH3Lkx8oJmKcSYAg8tj6-38" style="edgeStyle=none;rounded=0;orthogonalLoop=1;jettySize=auto;html=1;strokeColor=#000000;fontColor=#FF1F1F;targetPerimeterSpacing=8;" parent="1" source="pH3Lkx8oJmKcSYAg8tj6-33" edge="1">
          <mxGeometry relative="1" as="geometry">
            <mxPoint x="650" y="320" as="targetPoint" />
          </mxGeometry>
        </mxCell>
        <mxCell id="pH3Lkx8oJmKcSYAg8tj6-33" value="" style="ellipse;whiteSpace=wrap;html=1;aspect=fixed;" parent="1" vertex="1">
          <mxGeometry x="530" y="290" width="60" height="60" as="geometry" />
        </mxCell>
        <mxCell id="pH3Lkx8oJmKcSYAg8tj6-39" value="&lt;b&gt;&lt;font color=&quot;#000000&quot;&gt;Output&lt;/font&gt;&lt;/b&gt;" style="text;html=1;align=center;verticalAlign=middle;resizable=0;points=[];autosize=1;strokeColor=none;fillColor=none;fontColor=#FF1F1F;" parent="1" vertex="1">
          <mxGeometry x="650" y="305" width="60" height="30" as="geometry" />
        </mxCell>
        <mxCell id="pH3Lkx8oJmKcSYAg8tj6-42" value="&lt;b&gt;Hidden&lt;br&gt;Layer&lt;br&gt;&lt;/b&gt;" style="text;html=1;align=center;verticalAlign=middle;resizable=0;points=[];autosize=1;strokeColor=none;fillColor=none;" parent="1" vertex="1">
          <mxGeometry x="370" y="150" width="60" height="40" as="geometry" />
        </mxCell>
        <mxCell id="pH3Lkx8oJmKcSYAg8tj6-43" value="&lt;b&gt;Output&lt;br&gt;Layer&lt;br&gt;&lt;/b&gt;" style="text;html=1;align=center;verticalAlign=middle;resizable=0;points=[];autosize=1;strokeColor=none;fillColor=none;" parent="1" vertex="1">
          <mxGeometry x="530" y="240" width="60" height="40" as="geometry" />
        </mxCell>
      </root>
    </mxGraphModel>
  </diagram>
  <diagram id="_jBRLTI4pcqHdqoIz1SK" name="GRU">
    <mxGraphModel dx="1234" dy="1114" grid="1" gridSize="10" guides="1" tooltips="1" connect="1" arrows="1" fold="1" page="1" pageScale="1" pageWidth="827" pageHeight="1169" math="0" shadow="0">
      <root>
        <mxCell id="0" />
        <mxCell id="1" parent="0" />
        <mxCell id="OqUsNcc8uoc1xS8xT8ih-1" value="" style="rounded=1;whiteSpace=wrap;html=1;fillColor=#d5e8d4;strokeColor=#82b366;" parent="1" vertex="1">
          <mxGeometry x="260" y="250" width="330" height="260" as="geometry" />
        </mxCell>
        <mxCell id="OqUsNcc8uoc1xS8xT8ih-2" value="&lt;b&gt;Gated Recurrent Unit (GRU)&lt;/b&gt;" style="text;html=1;align=center;verticalAlign=middle;resizable=0;points=[];autosize=1;strokeColor=none;fillColor=none;" parent="1" vertex="1">
          <mxGeometry x="335" y="220" width="180" height="30" as="geometry" />
        </mxCell>
        <mxCell id="OqUsNcc8uoc1xS8xT8ih-8" style="edgeStyle=orthogonalEdgeStyle;rounded=1;orthogonalLoop=1;jettySize=auto;html=1;fontSize=16;fontColor=#000000;exitX=0.508;exitY=0.008;exitDx=0;exitDy=0;exitPerimeter=0;entryX=0.5;entryY=1;entryDx=0;entryDy=0;" parent="1" source="OqUsNcc8uoc1xS8xT8ih-3" target="OqUsNcc8uoc1xS8xT8ih-7" edge="1">
          <mxGeometry relative="1" as="geometry">
            <Array as="points">
              <mxPoint x="320" y="470" />
              <mxPoint x="513" y="470" />
            </Array>
          </mxGeometry>
        </mxCell>
        <mxCell id="OqUsNcc8uoc1xS8xT8ih-3" value="x&lt;sub style=&quot;font-size: 16px;&quot;&gt;t&lt;/sub&gt;" style="text;html=1;align=center;verticalAlign=middle;resizable=0;points=[];autosize=1;strokeColor=none;fillColor=none;fontSize=16;" parent="1" vertex="1">
          <mxGeometry x="300" y="520" width="40" height="40" as="geometry" />
        </mxCell>
        <mxCell id="OqUsNcc8uoc1xS8xT8ih-10" style="edgeStyle=orthogonalEdgeStyle;rounded=1;orthogonalLoop=1;jettySize=auto;html=1;fontSize=16;fontColor=#000000;entryX=1;entryY=0.5;entryDx=0;entryDy=0;exitX=0.5;exitY=0;exitDx=0;exitDy=0;" parent="1" source="OqUsNcc8uoc1xS8xT8ih-5" target="OqUsNcc8uoc1xS8xT8ih-9" edge="1">
          <mxGeometry relative="1" as="geometry" />
        </mxCell>
        <mxCell id="OqUsNcc8uoc1xS8xT8ih-5" value="&lt;b style=&quot;font-family: arial, sans-serif; font-size: 14px; text-align: left;&quot;&gt;σ&lt;/b&gt;" style="rounded=0;whiteSpace=wrap;html=1;fontSize=16;fillColor=#dae8fc;strokeColor=#6c8ebf;" parent="1" vertex="1">
          <mxGeometry x="386.88" y="410" width="38.5" height="20" as="geometry" />
        </mxCell>
        <mxCell id="OqUsNcc8uoc1xS8xT8ih-17" style="edgeStyle=orthogonalEdgeStyle;rounded=1;orthogonalLoop=1;jettySize=auto;html=1;fontSize=16;fontColor=#000000;exitX=0.5;exitY=0;exitDx=0;exitDy=0;entryX=0;entryY=0.5;entryDx=0;entryDy=0;" parent="1" source="OqUsNcc8uoc1xS8xT8ih-6" target="OqUsNcc8uoc1xS8xT8ih-15" edge="1">
          <mxGeometry relative="1" as="geometry" />
        </mxCell>
        <mxCell id="OqUsNcc8uoc1xS8xT8ih-18" style="edgeStyle=orthogonalEdgeStyle;rounded=0;orthogonalLoop=1;jettySize=auto;html=1;entryX=0.5;entryY=1;entryDx=0;entryDy=0;fontSize=16;fontColor=#000000;startArrow=none;" parent="1" source="OqUsNcc8uoc1xS8xT8ih-21" target="OqUsNcc8uoc1xS8xT8ih-13" edge="1">
          <mxGeometry relative="1" as="geometry" />
        </mxCell>
        <mxCell id="OqUsNcc8uoc1xS8xT8ih-6" value="&lt;b style=&quot;font-family: arial, sans-serif; font-size: 14px; text-align: left;&quot;&gt;σ&lt;/b&gt;" style="rounded=0;whiteSpace=wrap;html=1;fontSize=16;fillColor=#dae8fc;strokeColor=#6c8ebf;" parent="1" vertex="1">
          <mxGeometry x="443.13" y="410" width="40" height="20" as="geometry" />
        </mxCell>
        <mxCell id="OqUsNcc8uoc1xS8xT8ih-16" style="edgeStyle=orthogonalEdgeStyle;rounded=0;orthogonalLoop=1;jettySize=auto;html=1;fontSize=16;fontColor=#000000;" parent="1" source="OqUsNcc8uoc1xS8xT8ih-7" target="OqUsNcc8uoc1xS8xT8ih-15" edge="1">
          <mxGeometry relative="1" as="geometry" />
        </mxCell>
        <mxCell id="OqUsNcc8uoc1xS8xT8ih-7" value="&lt;b style=&quot;font-family: arial, sans-serif; font-size: 14px; text-align: left;&quot;&gt;tanh&lt;/b&gt;" style="rounded=0;whiteSpace=wrap;html=1;fontSize=16;fillColor=#dae8fc;strokeColor=#6c8ebf;" parent="1" vertex="1">
          <mxGeometry x="493.13" y="410" width="40" height="20" as="geometry" />
        </mxCell>
        <mxCell id="OqUsNcc8uoc1xS8xT8ih-9" value="x" style="ellipse;whiteSpace=wrap;html=1;aspect=fixed;rounded=1;labelBackgroundColor=none;fontSize=16;fillColor=#fff2cc;strokeColor=#d6b656;" parent="1" vertex="1">
          <mxGeometry x="330" y="340" width="30" height="30" as="geometry" />
        </mxCell>
        <mxCell id="OqUsNcc8uoc1xS8xT8ih-23" style="edgeStyle=orthogonalEdgeStyle;rounded=0;orthogonalLoop=1;jettySize=auto;html=1;fontSize=16;fontColor=#000000;" parent="1" source="OqUsNcc8uoc1xS8xT8ih-11" target="OqUsNcc8uoc1xS8xT8ih-13" edge="1">
          <mxGeometry relative="1" as="geometry" />
        </mxCell>
        <mxCell id="OqUsNcc8uoc1xS8xT8ih-24" style="edgeStyle=orthogonalEdgeStyle;rounded=1;orthogonalLoop=1;jettySize=auto;html=1;entryX=0.5;entryY=0;entryDx=0;entryDy=0;fontSize=16;fontColor=#000000;" parent="1" source="OqUsNcc8uoc1xS8xT8ih-11" target="OqUsNcc8uoc1xS8xT8ih-9" edge="1">
          <mxGeometry relative="1" as="geometry" />
        </mxCell>
        <mxCell id="OqUsNcc8uoc1xS8xT8ih-25" style="edgeStyle=orthogonalEdgeStyle;rounded=1;orthogonalLoop=1;jettySize=auto;html=1;entryX=0.5;entryY=1;entryDx=0;entryDy=0;fontSize=16;fontColor=#000000;" parent="1" source="OqUsNcc8uoc1xS8xT8ih-11" target="OqUsNcc8uoc1xS8xT8ih-5" edge="1">
          <mxGeometry relative="1" as="geometry">
            <Array as="points">
              <mxPoint x="300" y="285" />
              <mxPoint x="300" y="450" />
              <mxPoint x="406" y="450" />
            </Array>
          </mxGeometry>
        </mxCell>
        <mxCell id="OqUsNcc8uoc1xS8xT8ih-26" style="edgeStyle=orthogonalEdgeStyle;orthogonalLoop=1;jettySize=auto;html=1;entryX=0.5;entryY=1;entryDx=0;entryDy=0;fontSize=16;fontColor=#000000;rounded=1;" parent="1" source="OqUsNcc8uoc1xS8xT8ih-11" target="OqUsNcc8uoc1xS8xT8ih-6" edge="1">
          <mxGeometry relative="1" as="geometry">
            <Array as="points">
              <mxPoint x="300" y="285" />
              <mxPoint x="300" y="450" />
              <mxPoint x="463" y="450" />
            </Array>
          </mxGeometry>
        </mxCell>
        <mxCell id="OqUsNcc8uoc1xS8xT8ih-11" value="h&lt;sub&gt;t-1&lt;/sub&gt;" style="text;html=1;align=center;verticalAlign=middle;resizable=0;points=[];autosize=1;strokeColor=none;fillColor=none;fontSize=16;" parent="1" vertex="1">
          <mxGeometry x="180" y="265" width="50" height="40" as="geometry" />
        </mxCell>
        <mxCell id="OqUsNcc8uoc1xS8xT8ih-19" style="edgeStyle=orthogonalEdgeStyle;rounded=0;orthogonalLoop=1;jettySize=auto;html=1;fontSize=16;fontColor=#000000;" parent="1" source="OqUsNcc8uoc1xS8xT8ih-13" target="OqUsNcc8uoc1xS8xT8ih-14" edge="1">
          <mxGeometry relative="1" as="geometry" />
        </mxCell>
        <mxCell id="OqUsNcc8uoc1xS8xT8ih-13" value="x" style="ellipse;whiteSpace=wrap;html=1;aspect=fixed;rounded=1;labelBackgroundColor=none;fontSize=16;fillColor=#fff2cc;strokeColor=#d6b656;" parent="1" vertex="1">
          <mxGeometry x="448.13" y="270" width="30" height="30" as="geometry" />
        </mxCell>
        <mxCell id="OqUsNcc8uoc1xS8xT8ih-31" style="edgeStyle=orthogonalEdgeStyle;rounded=0;orthogonalLoop=1;jettySize=auto;html=1;fontSize=16;fontColor=#000000;" parent="1" source="OqUsNcc8uoc1xS8xT8ih-14" target="OqUsNcc8uoc1xS8xT8ih-29" edge="1">
          <mxGeometry relative="1" as="geometry" />
        </mxCell>
        <mxCell id="OqUsNcc8uoc1xS8xT8ih-32" style="edgeStyle=orthogonalEdgeStyle;rounded=0;orthogonalLoop=1;jettySize=auto;html=1;fontSize=16;fontColor=#000000;" parent="1" source="OqUsNcc8uoc1xS8xT8ih-14" target="OqUsNcc8uoc1xS8xT8ih-30" edge="1">
          <mxGeometry relative="1" as="geometry" />
        </mxCell>
        <mxCell id="OqUsNcc8uoc1xS8xT8ih-14" value="+" style="ellipse;whiteSpace=wrap;html=1;aspect=fixed;rounded=1;labelBackgroundColor=none;fontSize=16;fillColor=#fff2cc;strokeColor=#d6b656;" parent="1" vertex="1">
          <mxGeometry x="498.13" y="270" width="30" height="30" as="geometry" />
        </mxCell>
        <mxCell id="OqUsNcc8uoc1xS8xT8ih-20" style="edgeStyle=orthogonalEdgeStyle;rounded=0;orthogonalLoop=1;jettySize=auto;html=1;fontSize=16;fontColor=#000000;" parent="1" source="OqUsNcc8uoc1xS8xT8ih-15" target="OqUsNcc8uoc1xS8xT8ih-14" edge="1">
          <mxGeometry relative="1" as="geometry" />
        </mxCell>
        <mxCell id="OqUsNcc8uoc1xS8xT8ih-15" value="+" style="ellipse;whiteSpace=wrap;html=1;aspect=fixed;rounded=1;labelBackgroundColor=none;fontSize=16;fillColor=#fff2cc;strokeColor=#d6b656;" parent="1" vertex="1">
          <mxGeometry x="498.13" y="360" width="30" height="30" as="geometry" />
        </mxCell>
        <mxCell id="OqUsNcc8uoc1xS8xT8ih-21" value="1-" style="ellipse;whiteSpace=wrap;html=1;aspect=fixed;rounded=1;labelBackgroundColor=none;fontSize=16;fillColor=#fff2cc;strokeColor=#d6b656;" parent="1" vertex="1">
          <mxGeometry x="448.13" y="330" width="30" height="30" as="geometry" />
        </mxCell>
        <mxCell id="OqUsNcc8uoc1xS8xT8ih-22" value="" style="edgeStyle=orthogonalEdgeStyle;rounded=0;orthogonalLoop=1;jettySize=auto;html=1;entryX=0.5;entryY=1;entryDx=0;entryDy=0;fontSize=16;fontColor=#000000;endArrow=none;" parent="1" source="OqUsNcc8uoc1xS8xT8ih-6" target="OqUsNcc8uoc1xS8xT8ih-21" edge="1">
          <mxGeometry relative="1" as="geometry">
            <mxPoint x="463.1300000000001" y="410" as="sourcePoint" />
            <mxPoint x="463.1300000000001" y="330" as="targetPoint" />
          </mxGeometry>
        </mxCell>
        <mxCell id="OqUsNcc8uoc1xS8xT8ih-27" value="h&#39;&lt;sub&gt;t&lt;/sub&gt;" style="text;html=1;align=center;verticalAlign=middle;resizable=0;points=[];autosize=1;strokeColor=none;fillColor=none;fontSize=16;" parent="1" vertex="1">
          <mxGeometry x="528.13" y="370" width="40" height="40" as="geometry" />
        </mxCell>
        <mxCell id="OqUsNcc8uoc1xS8xT8ih-29" value="y&lt;span style=&quot;font-size: 13.3333px;&quot;&gt;&#39;&lt;sub&gt;t&lt;/sub&gt;&lt;/span&gt;" style="text;html=1;align=center;verticalAlign=middle;resizable=0;points=[];autosize=1;strokeColor=none;fillColor=none;fontSize=16;" parent="1" vertex="1">
          <mxGeometry x="540" y="190" width="40" height="40" as="geometry" />
        </mxCell>
        <mxCell id="OqUsNcc8uoc1xS8xT8ih-30" value="h&lt;sub&gt;t&lt;/sub&gt;" style="text;html=1;align=center;verticalAlign=middle;resizable=0;points=[];autosize=1;strokeColor=none;fillColor=none;fontSize=16;" parent="1" vertex="1">
          <mxGeometry x="620" y="265" width="40" height="40" as="geometry" />
        </mxCell>
        <mxCell id="OqUsNcc8uoc1xS8xT8ih-34" style="edgeStyle=orthogonalEdgeStyle;rounded=1;orthogonalLoop=1;jettySize=auto;html=1;fontSize=16;fontColor=#000000;entryX=0.5;entryY=1;entryDx=0;entryDy=0;sketch=0;jumpStyle=arc;" parent="1" source="OqUsNcc8uoc1xS8xT8ih-9" target="OqUsNcc8uoc1xS8xT8ih-7" edge="1">
          <mxGeometry relative="1" as="geometry">
            <Array as="points">
              <mxPoint x="345" y="470" />
              <mxPoint x="513" y="470" />
            </Array>
          </mxGeometry>
        </mxCell>
        <mxCell id="OqUsNcc8uoc1xS8xT8ih-35" value="x" style="ellipse;whiteSpace=wrap;html=1;aspect=fixed;rounded=1;labelBackgroundColor=none;fontSize=16;fillColor=#fff2cc;strokeColor=#d6b656;" parent="1" vertex="1">
          <mxGeometry x="110" y="320" width="30" height="30" as="geometry" />
        </mxCell>
        <mxCell id="OqUsNcc8uoc1xS8xT8ih-36" value="&lt;div style=&quot;text-align: left;&quot;&gt;&lt;span style=&quot;background-color: initial;&quot;&gt;pointwise&lt;/span&gt;&lt;/div&gt;multiplication" style="text;html=1;align=center;verticalAlign=middle;resizable=0;points=[];autosize=1;strokeColor=none;fillColor=none;fontSize=16;fontColor=#000000;" parent="1" vertex="1">
          <mxGeometry x="140" y="320" width="120" height="50" as="geometry" />
        </mxCell>
        <mxCell id="OqUsNcc8uoc1xS8xT8ih-37" value="+" style="ellipse;whiteSpace=wrap;html=1;aspect=fixed;rounded=1;labelBackgroundColor=none;fontSize=16;fillColor=#fff2cc;strokeColor=#d6b656;" parent="1" vertex="1">
          <mxGeometry x="110" y="380" width="30" height="30" as="geometry" />
        </mxCell>
        <mxCell id="OqUsNcc8uoc1xS8xT8ih-38" value="pointwise&lt;br&gt;addition" style="text;html=1;align=left;verticalAlign=middle;resizable=0;points=[];autosize=1;strokeColor=none;fillColor=none;fontSize=16;fontColor=#000000;" parent="1" vertex="1">
          <mxGeometry x="151" y="379" width="90" height="50" as="geometry" />
        </mxCell>
        <mxCell id="OqUsNcc8uoc1xS8xT8ih-39" value="" style="endArrow=classic;html=1;rounded=1;sketch=0;fontSize=16;fontColor=#000000;jumpStyle=arc;" parent="1" edge="1">
          <mxGeometry width="50" height="50" relative="1" as="geometry">
            <mxPoint x="110" y="480" as="sourcePoint" />
            <mxPoint x="140" y="460" as="targetPoint" />
            <Array as="points">
              <mxPoint x="110" y="460" />
            </Array>
          </mxGeometry>
        </mxCell>
        <mxCell id="OqUsNcc8uoc1xS8xT8ih-40" value="" style="endArrow=classic;html=1;rounded=1;sketch=0;fontSize=16;fontColor=#000000;jumpStyle=none;" parent="1" edge="1">
          <mxGeometry width="50" height="50" relative="1" as="geometry">
            <mxPoint x="110" y="440" as="sourcePoint" />
            <mxPoint x="140" y="460" as="targetPoint" />
            <Array as="points">
              <mxPoint x="110" y="460" />
            </Array>
          </mxGeometry>
        </mxCell>
        <mxCell id="OqUsNcc8uoc1xS8xT8ih-41" value="&lt;div style=&quot;&quot;&gt;&lt;span style=&quot;background-color: initial;&quot;&gt;vector&lt;/span&gt;&lt;/div&gt;concatenation" style="text;html=1;align=left;verticalAlign=middle;resizable=0;points=[];autosize=1;strokeColor=none;fillColor=none;fontSize=16;fontColor=#000000;" parent="1" vertex="1">
          <mxGeometry x="145" y="440" width="120" height="50" as="geometry" />
        </mxCell>
      </root>
    </mxGraphModel>
  </diagram>
  <diagram id="3ccGAb5E00HJ4IuKqiGx" name="Página-9">
    <mxGraphModel dx="1234" dy="1114" grid="1" gridSize="10" guides="1" tooltips="1" connect="1" arrows="1" fold="1" page="1" pageScale="1" pageWidth="827" pageHeight="1169" math="0" shadow="0">
      <root>
        <mxCell id="0" />
        <mxCell id="1" parent="0" />
        <mxCell id="BxseMBV83leVj6O_Phgd-30" value="" style="rounded=1;whiteSpace=wrap;html=1;fillColor=#f5f5f5;fontColor=#333333;strokeColor=#666666;arcSize=2;" parent="1" vertex="1">
          <mxGeometry x="164" y="160" width="510" height="198" as="geometry" />
        </mxCell>
        <mxCell id="BxseMBV83leVj6O_Phgd-37" style="edgeStyle=orthogonalEdgeStyle;rounded=0;orthogonalLoop=1;jettySize=auto;html=1;strokeColor=#FF1F1F;entryX=0.194;entryY=0.96;entryDx=0;entryDy=0;entryPerimeter=0;exitX=0.996;exitY=0.542;exitDx=0;exitDy=0;exitPerimeter=0;" parent="1" source="BxseMBV83leVj6O_Phgd-1" target="BxseMBV83leVj6O_Phgd-15" edge="1">
          <mxGeometry relative="1" as="geometry" />
        </mxCell>
        <mxCell id="BxseMBV83leVj6O_Phgd-1" value="" style="rounded=1;whiteSpace=wrap;html=1;fillColor=#fff2cc;strokeColor=#d6b656;" parent="1" vertex="1">
          <mxGeometry x="20" y="170" width="100" height="176" as="geometry" />
        </mxCell>
        <mxCell id="BxseMBV83leVj6O_Phgd-2" value="&lt;b&gt;Model State Storage&lt;/b&gt;" style="text;html=1;align=center;verticalAlign=middle;resizable=0;points=[];autosize=1;strokeColor=none;fillColor=none;" parent="1" vertex="1">
          <mxGeometry y="140" width="140" height="30" as="geometry" />
        </mxCell>
        <mxCell id="BxseMBV83leVj6O_Phgd-3" value="" style="rounded=1;whiteSpace=wrap;html=1;fillColor=#d5e8d4;strokeColor=#82b366;" parent="1" vertex="1">
          <mxGeometry x="40" y="211" width="60" height="30" as="geometry" />
        </mxCell>
        <mxCell id="BxseMBV83leVj6O_Phgd-4" value="" style="rounded=1;whiteSpace=wrap;html=1;fillColor=#d5e8d4;strokeColor=#82b366;" parent="1" vertex="1">
          <mxGeometry x="40" y="247" width="60" height="30" as="geometry" />
        </mxCell>
        <mxCell id="BxseMBV83leVj6O_Phgd-5" value="" style="rounded=1;whiteSpace=wrap;html=1;fillColor=#d5e8d4;strokeColor=#82b366;" parent="1" vertex="1">
          <mxGeometry x="40" y="307" width="60" height="30" as="geometry" />
        </mxCell>
        <mxCell id="BxseMBV83leVj6O_Phgd-7" value="GRU shared&lt;br&gt;States" style="text;html=1;align=center;verticalAlign=middle;resizable=0;points=[];autosize=1;strokeColor=none;fillColor=none;" parent="1" vertex="1">
          <mxGeometry x="26" y="172" width="90" height="40" as="geometry" />
        </mxCell>
        <mxCell id="BxseMBV83leVj6O_Phgd-19" style="edgeStyle=orthogonalEdgeStyle;rounded=0;orthogonalLoop=1;jettySize=auto;html=1;entryX=0.5;entryY=1;entryDx=0;entryDy=0;strokeColor=#000000;" parent="1" source="BxseMBV83leVj6O_Phgd-8" target="BxseMBV83leVj6O_Phgd-12" edge="1">
          <mxGeometry relative="1" as="geometry" />
        </mxCell>
        <mxCell id="BxseMBV83leVj6O_Phgd-8" value="&lt;b&gt;Layer 1&lt;/b&gt;" style="rounded=1;whiteSpace=wrap;html=1;fillColor=#dae8fc;strokeColor=#6c8ebf;" parent="1" vertex="1">
          <mxGeometry x="270" y="320" width="144" height="20" as="geometry" />
        </mxCell>
        <mxCell id="BxseMBV83leVj6O_Phgd-11" value="&lt;b&gt;...&lt;/b&gt;" style="text;html=1;align=center;verticalAlign=middle;resizable=0;points=[];autosize=1;strokeColor=none;fillColor=none;" parent="1" vertex="1">
          <mxGeometry x="55" y="277" width="30" height="30" as="geometry" />
        </mxCell>
        <mxCell id="BxseMBV83leVj6O_Phgd-20" style="rounded=0;orthogonalLoop=1;jettySize=auto;html=1;strokeColor=#000000;" parent="1" source="BxseMBV83leVj6O_Phgd-12" target="BxseMBV83leVj6O_Phgd-15" edge="1">
          <mxGeometry relative="1" as="geometry" />
        </mxCell>
        <mxCell id="BxseMBV83leVj6O_Phgd-21" style="edgeStyle=none;rounded=0;orthogonalLoop=1;jettySize=auto;html=1;strokeColor=#000000;" parent="1" source="BxseMBV83leVj6O_Phgd-12" target="BxseMBV83leVj6O_Phgd-16" edge="1">
          <mxGeometry relative="1" as="geometry" />
        </mxCell>
        <mxCell id="BxseMBV83leVj6O_Phgd-12" value="&lt;b&gt;Layer 2&lt;/b&gt;" style="rounded=1;whiteSpace=wrap;html=1;fillColor=#dae8fc;strokeColor=#6c8ebf;" parent="1" vertex="1">
          <mxGeometry x="270" y="270" width="144" height="20" as="geometry" />
        </mxCell>
        <mxCell id="BxseMBV83leVj6O_Phgd-26" style="edgeStyle=none;rounded=0;orthogonalLoop=1;jettySize=auto;html=1;strokeColor=#000000;" parent="1" source="BxseMBV83leVj6O_Phgd-15" target="BxseMBV83leVj6O_Phgd-25" edge="1">
          <mxGeometry relative="1" as="geometry" />
        </mxCell>
        <mxCell id="BxseMBV83leVj6O_Phgd-35" style="edgeStyle=orthogonalEdgeStyle;rounded=0;orthogonalLoop=1;jettySize=auto;html=1;strokeColor=#FF1F1F;exitX=0.172;exitY=0;exitDx=0;exitDy=0;exitPerimeter=0;entryX=0.992;entryY=0.199;entryDx=0;entryDy=0;entryPerimeter=0;" parent="1" source="BxseMBV83leVj6O_Phgd-15" target="BxseMBV83leVj6O_Phgd-1" edge="1">
          <mxGeometry relative="1" as="geometry">
            <mxPoint x="120" y="205" as="targetPoint" />
          </mxGeometry>
        </mxCell>
        <mxCell id="BxseMBV83leVj6O_Phgd-36" value="Send new&lt;br&gt;&amp;nbsp;State" style="edgeLabel;html=1;align=center;verticalAlign=middle;resizable=0;points=[];labelBackgroundColor=none;" parent="BxseMBV83leVj6O_Phgd-35" vertex="1" connectable="0">
          <mxGeometry x="0.3489" y="-1" relative="1" as="geometry">
            <mxPoint x="50" y="-17" as="offset" />
          </mxGeometry>
        </mxCell>
        <mxCell id="BxseMBV83leVj6O_Phgd-15" value="&lt;b&gt;GRU Layer 1&lt;/b&gt;" style="rounded=1;whiteSpace=wrap;html=1;fillColor=#dae8fc;strokeColor=#6c8ebf;" parent="1" vertex="1">
          <mxGeometry x="190" y="225" width="144" height="20" as="geometry" />
        </mxCell>
        <mxCell id="BxseMBV83leVj6O_Phgd-23" style="edgeStyle=none;rounded=0;orthogonalLoop=1;jettySize=auto;html=1;strokeColor=#FF1F1F;" parent="1" source="BxseMBV83leVj6O_Phgd-16" target="BxseMBV83leVj6O_Phgd-22" edge="1">
          <mxGeometry relative="1" as="geometry" />
        </mxCell>
        <mxCell id="BxseMBV83leVj6O_Phgd-27" style="edgeStyle=none;rounded=0;orthogonalLoop=1;jettySize=auto;html=1;strokeColor=#000000;" parent="1" source="BxseMBV83leVj6O_Phgd-16" target="BxseMBV83leVj6O_Phgd-25" edge="1">
          <mxGeometry relative="1" as="geometry" />
        </mxCell>
        <mxCell id="BxseMBV83leVj6O_Phgd-16" value="&lt;b&gt;GRU Layer 2&lt;/b&gt;" style="rounded=1;whiteSpace=wrap;html=1;fillColor=#dae8fc;strokeColor=#6c8ebf;" parent="1" vertex="1">
          <mxGeometry x="360" y="225" width="144" height="20" as="geometry" />
        </mxCell>
        <mxCell id="BxseMBV83leVj6O_Phgd-24" style="edgeStyle=none;rounded=0;orthogonalLoop=1;jettySize=auto;html=1;strokeColor=#FF1F1F;" parent="1" source="BxseMBV83leVj6O_Phgd-22" target="BxseMBV83leVj6O_Phgd-16" edge="1">
          <mxGeometry relative="1" as="geometry" />
        </mxCell>
        <mxCell id="BxseMBV83leVj6O_Phgd-22" value="Embed DB with credit card&lt;br&gt;states&amp;nbsp;" style="shape=cylinder3;whiteSpace=wrap;html=1;boundedLbl=1;backgroundOutline=1;size=15;rounded=1;fillColor=#d5e8d4;strokeColor=#82b366;" parent="1" vertex="1">
          <mxGeometry x="540" y="187" width="106" height="103" as="geometry" />
        </mxCell>
        <mxCell id="BxseMBV83leVj6O_Phgd-28" style="edgeStyle=none;rounded=0;orthogonalLoop=1;jettySize=auto;html=1;strokeColor=#000000;" parent="1" source="BxseMBV83leVj6O_Phgd-25" target="BxseMBV83leVj6O_Phgd-29" edge="1">
          <mxGeometry relative="1" as="geometry">
            <mxPoint x="342" y="150" as="targetPoint" />
          </mxGeometry>
        </mxCell>
        <mxCell id="BxseMBV83leVj6O_Phgd-25" value="&lt;b&gt;Layer 3&lt;/b&gt;" style="rounded=1;whiteSpace=wrap;html=1;fillColor=#dae8fc;strokeColor=#6c8ebf;" parent="1" vertex="1">
          <mxGeometry x="270" y="177" width="144" height="20" as="geometry" />
        </mxCell>
        <mxCell id="BxseMBV83leVj6O_Phgd-29" value="Output" style="text;html=1;align=center;verticalAlign=middle;resizable=0;points=[];autosize=1;strokeColor=none;fillColor=none;" parent="1" vertex="1">
          <mxGeometry x="312" y="110" width="60" height="30" as="geometry" />
        </mxCell>
        <mxCell id="BxseMBV83leVj6O_Phgd-32" value="&lt;b&gt;Worker Node&lt;/b&gt;" style="text;html=1;align=center;verticalAlign=middle;resizable=0;points=[];autosize=1;strokeColor=none;fillColor=none;" parent="1" vertex="1">
          <mxGeometry x="460" y="130" width="100" height="30" as="geometry" />
        </mxCell>
        <mxCell id="BxseMBV83leVj6O_Phgd-34" style="edgeStyle=orthogonalEdgeStyle;rounded=0;orthogonalLoop=1;jettySize=auto;html=1;strokeColor=#000000;" parent="1" source="BxseMBV83leVj6O_Phgd-33" target="BxseMBV83leVj6O_Phgd-8" edge="1">
          <mxGeometry relative="1" as="geometry" />
        </mxCell>
        <mxCell id="BxseMBV83leVj6O_Phgd-33" value="Input" style="text;html=1;align=center;verticalAlign=middle;resizable=0;points=[];autosize=1;strokeColor=none;fillColor=none;" parent="1" vertex="1">
          <mxGeometry x="185" y="358" width="50" height="30" as="geometry" />
        </mxCell>
        <mxCell id="BxseMBV83leVj6O_Phgd-38" value="Request&lt;br&gt;most recent&lt;br&gt;state" style="edgeLabel;html=1;align=center;verticalAlign=middle;resizable=0;points=[];labelBackgroundColor=none;" parent="1" vertex="1" connectable="0">
          <mxGeometry x="206.99977638166462" y="293.0045606940825" as="geometry" />
        </mxCell>
      </root>
    </mxGraphModel>
  </diagram>
  <diagram id="zPpYkz56mr9164HHOYPo" name="Confusion matrix">
    <mxGraphModel dx="851" dy="768" grid="1" gridSize="10" guides="1" tooltips="1" connect="1" arrows="1" fold="1" page="1" pageScale="1" pageWidth="850" pageHeight="1100" math="0" shadow="0">
      <root>
        <mxCell id="0" />
        <mxCell id="1" parent="0" />
        <mxCell id="Eymg_r_Y9ekdfqB-1oI9-11" value="" style="group" vertex="1" connectable="0" parent="1">
          <mxGeometry x="230" y="270" width="190" height="190" as="geometry" />
        </mxCell>
        <mxCell id="Eymg_r_Y9ekdfqB-1oI9-1" value="TP" style="rounded=0;whiteSpace=wrap;html=1;fillColor=#d5e8d4;strokeColor=#82b366;" vertex="1" parent="Eymg_r_Y9ekdfqB-1oI9-11">
          <mxGeometry x="49.25925925925925" y="49.25925925925925" width="70.37037037037037" height="70.37037037037037" as="geometry" />
        </mxCell>
        <mxCell id="Eymg_r_Y9ekdfqB-1oI9-2" value="TN" style="rounded=0;whiteSpace=wrap;html=1;fillColor=#d5e8d4;strokeColor=#82b366;" vertex="1" parent="Eymg_r_Y9ekdfqB-1oI9-11">
          <mxGeometry x="119.6296296296296" y="119.6296296296296" width="70.37037037037037" height="70.37037037037037" as="geometry" />
        </mxCell>
        <mxCell id="Eymg_r_Y9ekdfqB-1oI9-3" value="FN" style="rounded=0;whiteSpace=wrap;html=1;fillColor=#f8cecc;strokeColor=#b85450;" vertex="1" parent="Eymg_r_Y9ekdfqB-1oI9-11">
          <mxGeometry x="49.25925925925925" y="119.6296296296296" width="70.37037037037037" height="70.37037037037037" as="geometry" />
        </mxCell>
        <mxCell id="Eymg_r_Y9ekdfqB-1oI9-4" value="FP" style="rounded=0;whiteSpace=wrap;html=1;fillColor=#f8cecc;strokeColor=#b85450;" vertex="1" parent="Eymg_r_Y9ekdfqB-1oI9-11">
          <mxGeometry x="119.6296296296296" y="49.25925925925925" width="70.37037037037037" height="70.37037037037037" as="geometry" />
        </mxCell>
        <mxCell id="Eymg_r_Y9ekdfqB-1oI9-5" value="Positive" style="rounded=0;whiteSpace=wrap;html=1;fillColor=#ffe6cc;strokeColor=#d79b00;" vertex="1" parent="Eymg_r_Y9ekdfqB-1oI9-11">
          <mxGeometry x="49.25925925925925" y="21.11111111111111" width="70.37037037037037" height="28.14814814814815" as="geometry" />
        </mxCell>
        <mxCell id="Eymg_r_Y9ekdfqB-1oI9-6" value="Negative" style="rounded=0;whiteSpace=wrap;html=1;fillColor=#ffe6cc;strokeColor=#d79b00;" vertex="1" parent="Eymg_r_Y9ekdfqB-1oI9-11">
          <mxGeometry x="119.6296296296296" y="21.11111111111111" width="70.37037037037037" height="28.14814814814815" as="geometry" />
        </mxCell>
        <mxCell id="Eymg_r_Y9ekdfqB-1oI9-7" value="Negative" style="rounded=0;whiteSpace=wrap;html=1;fillColor=#ffe6cc;strokeColor=#d79b00;direction=north;rotation=270;" vertex="1" parent="Eymg_r_Y9ekdfqB-1oI9-11">
          <mxGeometry y="140.74074074074073" width="70.37037037037037" height="28.14814814814815" as="geometry" />
        </mxCell>
        <mxCell id="Eymg_r_Y9ekdfqB-1oI9-8" value="&lt;div&gt;Positive&lt;/div&gt;" style="rounded=0;whiteSpace=wrap;html=1;fillColor=#ffe6cc;strokeColor=#d79b00;direction=north;rotation=270;" vertex="1" parent="Eymg_r_Y9ekdfqB-1oI9-11">
          <mxGeometry y="70.37037037037037" width="70.37037037037037" height="28.14814814814815" as="geometry" />
        </mxCell>
        <mxCell id="Eymg_r_Y9ekdfqB-1oI9-10" value="&lt;b&gt;Predicted Label&lt;br&gt;&lt;/b&gt;" style="text;html=1;strokeColor=none;fillColor=none;align=center;verticalAlign=middle;whiteSpace=wrap;rounded=0;direction=west;rotation=270;" vertex="1" parent="Eymg_r_Y9ekdfqB-1oI9-11">
          <mxGeometry x="-39.89" y="110" width="98.15" height="21.11" as="geometry" />
        </mxCell>
        <mxCell id="Eymg_r_Y9ekdfqB-1oI9-9" value="&lt;b&gt;True Label&lt;/b&gt;" style="text;html=1;strokeColor=none;fillColor=none;align=center;verticalAlign=middle;whiteSpace=wrap;rounded=0;" vertex="1" parent="Eymg_r_Y9ekdfqB-1oI9-11">
          <mxGeometry x="77" width="88.52" height="21.11" as="geometry" />
        </mxCell>
      </root>
    </mxGraphModel>
  </diagram>
  <diagram id="83Qibcic2Gv-uulLuF1w" name="cross_validation">
    <mxGraphModel dx="851" dy="768" grid="1" gridSize="10" guides="1" tooltips="1" connect="1" arrows="1" fold="1" page="1" pageScale="1" pageWidth="850" pageHeight="1100" math="0" shadow="0">
      <root>
        <mxCell id="0" />
        <mxCell id="1" parent="0" />
        <mxCell id="TDpOSFzWSWIO429EY1TL-1" value="Dataset" style="rounded=1;whiteSpace=wrap;html=1;fillColor=#fff2cc;strokeColor=#d6b656;" vertex="1" parent="1">
          <mxGeometry x="150" y="310" width="590" height="30" as="geometry" />
        </mxCell>
        <mxCell id="TDpOSFzWSWIO429EY1TL-2" value="Train" style="rounded=1;whiteSpace=wrap;html=1;fillColor=#ffe6cc;strokeColor=#d79b00;" vertex="1" parent="1">
          <mxGeometry x="150" y="360" width="110" height="30" as="geometry" />
        </mxCell>
        <mxCell id="TDpOSFzWSWIO429EY1TL-3" value="Test" style="rounded=1;whiteSpace=wrap;html=1;fillColor=#dae8fc;strokeColor=#6c8ebf;" vertex="1" parent="1">
          <mxGeometry x="630" y="360" width="110" height="30" as="geometry" />
        </mxCell>
        <mxCell id="TDpOSFzWSWIO429EY1TL-7" value="Train" style="rounded=1;whiteSpace=wrap;html=1;fillColor=#ffe6cc;strokeColor=#d79b00;" vertex="1" parent="1">
          <mxGeometry x="270" y="360" width="110" height="30" as="geometry" />
        </mxCell>
        <mxCell id="TDpOSFzWSWIO429EY1TL-8" value="Train" style="rounded=1;whiteSpace=wrap;html=1;fillColor=#ffe6cc;strokeColor=#d79b00;" vertex="1" parent="1">
          <mxGeometry x="390" y="360" width="110" height="30" as="geometry" />
        </mxCell>
        <mxCell id="TDpOSFzWSWIO429EY1TL-9" value="Train" style="rounded=1;whiteSpace=wrap;html=1;fillColor=#ffe6cc;strokeColor=#d79b00;" vertex="1" parent="1">
          <mxGeometry x="510" y="360" width="110" height="30" as="geometry" />
        </mxCell>
        <mxCell id="TDpOSFzWSWIO429EY1TL-10" value="Test" style="rounded=1;whiteSpace=wrap;html=1;fillColor=#dae8fc;strokeColor=#6c8ebf;" vertex="1" parent="1">
          <mxGeometry x="510" y="400" width="110" height="30" as="geometry" />
        </mxCell>
        <mxCell id="TDpOSFzWSWIO429EY1TL-11" value="Test" style="rounded=1;whiteSpace=wrap;html=1;fillColor=#dae8fc;strokeColor=#6c8ebf;" vertex="1" parent="1">
          <mxGeometry x="390" y="440" width="110" height="30" as="geometry" />
        </mxCell>
        <mxCell id="TDpOSFzWSWIO429EY1TL-12" value="Test" style="rounded=1;whiteSpace=wrap;html=1;fillColor=#dae8fc;strokeColor=#6c8ebf;" vertex="1" parent="1">
          <mxGeometry x="270" y="480" width="110" height="30" as="geometry" />
        </mxCell>
        <mxCell id="TDpOSFzWSWIO429EY1TL-13" value="Test" style="rounded=1;whiteSpace=wrap;html=1;fillColor=#dae8fc;strokeColor=#6c8ebf;" vertex="1" parent="1">
          <mxGeometry x="150" y="520" width="110" height="30" as="geometry" />
        </mxCell>
        <mxCell id="TDpOSFzWSWIO429EY1TL-14" value="Train" style="rounded=1;whiteSpace=wrap;html=1;fillColor=#ffe6cc;strokeColor=#d79b00;" vertex="1" parent="1">
          <mxGeometry x="150" y="400" width="110" height="30" as="geometry" />
        </mxCell>
        <mxCell id="TDpOSFzWSWIO429EY1TL-15" value="Train" style="rounded=1;whiteSpace=wrap;html=1;fillColor=#ffe6cc;strokeColor=#d79b00;" vertex="1" parent="1">
          <mxGeometry x="150" y="440" width="110" height="30" as="geometry" />
        </mxCell>
        <mxCell id="TDpOSFzWSWIO429EY1TL-16" value="Train" style="rounded=1;whiteSpace=wrap;html=1;fillColor=#ffe6cc;strokeColor=#d79b00;" vertex="1" parent="1">
          <mxGeometry x="150" y="480" width="110" height="30" as="geometry" />
        </mxCell>
        <mxCell id="TDpOSFzWSWIO429EY1TL-17" value="Train" style="rounded=1;whiteSpace=wrap;html=1;fillColor=#ffe6cc;strokeColor=#d79b00;" vertex="1" parent="1">
          <mxGeometry x="390" y="400" width="110" height="30" as="geometry" />
        </mxCell>
        <mxCell id="TDpOSFzWSWIO429EY1TL-18" value="Train" style="rounded=1;whiteSpace=wrap;html=1;fillColor=#ffe6cc;strokeColor=#d79b00;" vertex="1" parent="1">
          <mxGeometry x="270" y="400" width="110" height="30" as="geometry" />
        </mxCell>
        <mxCell id="TDpOSFzWSWIO429EY1TL-19" value="Train" style="rounded=1;whiteSpace=wrap;html=1;fillColor=#ffe6cc;strokeColor=#d79b00;" vertex="1" parent="1">
          <mxGeometry x="270" y="440" width="110" height="30" as="geometry" />
        </mxCell>
        <mxCell id="TDpOSFzWSWIO429EY1TL-20" value="Train" style="rounded=1;whiteSpace=wrap;html=1;fillColor=#ffe6cc;strokeColor=#d79b00;" vertex="1" parent="1">
          <mxGeometry x="270" y="520" width="110" height="30" as="geometry" />
        </mxCell>
        <mxCell id="TDpOSFzWSWIO429EY1TL-21" value="Train" style="rounded=1;whiteSpace=wrap;html=1;fillColor=#ffe6cc;strokeColor=#d79b00;" vertex="1" parent="1">
          <mxGeometry x="390" y="480" width="110" height="30" as="geometry" />
        </mxCell>
        <mxCell id="TDpOSFzWSWIO429EY1TL-22" value="Train" style="rounded=1;whiteSpace=wrap;html=1;fillColor=#ffe6cc;strokeColor=#d79b00;" vertex="1" parent="1">
          <mxGeometry x="390" y="520" width="110" height="30" as="geometry" />
        </mxCell>
        <mxCell id="TDpOSFzWSWIO429EY1TL-23" value="Train" style="rounded=1;whiteSpace=wrap;html=1;fillColor=#ffe6cc;strokeColor=#d79b00;" vertex="1" parent="1">
          <mxGeometry x="510" y="520" width="110" height="30" as="geometry" />
        </mxCell>
        <mxCell id="TDpOSFzWSWIO429EY1TL-24" value="Train" style="rounded=1;whiteSpace=wrap;html=1;fillColor=#ffe6cc;strokeColor=#d79b00;" vertex="1" parent="1">
          <mxGeometry x="510" y="480" width="110" height="30" as="geometry" />
        </mxCell>
        <mxCell id="TDpOSFzWSWIO429EY1TL-25" value="Train" style="rounded=1;whiteSpace=wrap;html=1;fillColor=#ffe6cc;strokeColor=#d79b00;" vertex="1" parent="1">
          <mxGeometry x="510" y="440" width="110" height="30" as="geometry" />
        </mxCell>
        <mxCell id="TDpOSFzWSWIO429EY1TL-26" value="Train" style="rounded=1;whiteSpace=wrap;html=1;fillColor=#ffe6cc;strokeColor=#d79b00;" vertex="1" parent="1">
          <mxGeometry x="630" y="400" width="110" height="30" as="geometry" />
        </mxCell>
        <mxCell id="TDpOSFzWSWIO429EY1TL-27" value="Train" style="rounded=1;whiteSpace=wrap;html=1;fillColor=#ffe6cc;strokeColor=#d79b00;" vertex="1" parent="1">
          <mxGeometry x="630" y="440" width="110" height="30" as="geometry" />
        </mxCell>
        <mxCell id="TDpOSFzWSWIO429EY1TL-28" value="Train" style="rounded=1;whiteSpace=wrap;html=1;fillColor=#ffe6cc;strokeColor=#d79b00;" vertex="1" parent="1">
          <mxGeometry x="630" y="480" width="110" height="30" as="geometry" />
        </mxCell>
        <mxCell id="TDpOSFzWSWIO429EY1TL-29" value="Train" style="rounded=1;whiteSpace=wrap;html=1;fillColor=#ffe6cc;strokeColor=#d79b00;" vertex="1" parent="1">
          <mxGeometry x="630" y="520" width="110" height="30" as="geometry" />
        </mxCell>
        <mxCell id="TDpOSFzWSWIO429EY1TL-31" value="&lt;b&gt;Fold 1&lt;br&gt;&lt;/b&gt;" style="text;html=1;align=center;verticalAlign=middle;resizable=0;points=[];autosize=1;strokeColor=none;fillColor=none;" vertex="1" parent="1">
          <mxGeometry x="90" y="365" width="60" height="30" as="geometry" />
        </mxCell>
        <mxCell id="TDpOSFzWSWIO429EY1TL-36" value="&lt;div&gt;&lt;b&gt;Fold 5&lt;/b&gt;&lt;/div&gt;" style="text;html=1;align=center;verticalAlign=middle;resizable=0;points=[];autosize=1;strokeColor=none;fillColor=none;" vertex="1" parent="1">
          <mxGeometry x="90" y="522" width="60" height="30" as="geometry" />
        </mxCell>
        <mxCell id="TDpOSFzWSWIO429EY1TL-37" value="&lt;div&gt;&lt;b&gt;Fold 4&lt;/b&gt;&lt;/div&gt;" style="text;html=1;align=center;verticalAlign=middle;resizable=0;points=[];autosize=1;strokeColor=none;fillColor=none;" vertex="1" parent="1">
          <mxGeometry x="90" y="485" width="60" height="30" as="geometry" />
        </mxCell>
        <mxCell id="TDpOSFzWSWIO429EY1TL-38" value="&lt;div&gt;&lt;b&gt;Fold 3&lt;br&gt;&lt;/b&gt;&lt;/div&gt;" style="text;html=1;align=center;verticalAlign=middle;resizable=0;points=[];autosize=1;strokeColor=none;fillColor=none;" vertex="1" parent="1">
          <mxGeometry x="90" y="446" width="60" height="30" as="geometry" />
        </mxCell>
        <mxCell id="TDpOSFzWSWIO429EY1TL-39" value="&lt;div&gt;&lt;b&gt;Fold 2&lt;/b&gt;&lt;/div&gt;" style="text;html=1;align=center;verticalAlign=middle;resizable=0;points=[];autosize=1;strokeColor=none;fillColor=none;" vertex="1" parent="1">
          <mxGeometry x="90" y="405" width="60" height="30" as="geometry" />
        </mxCell>
      </root>
    </mxGraphModel>
  </diagram>
  <diagram name="Cópia do cross_validation" id="MBKrh7PJmRD50z0aBYMk">
    <mxGraphModel dx="1234" dy="1114" grid="1" gridSize="10" guides="1" tooltips="1" connect="1" arrows="1" fold="1" page="1" pageScale="1" pageWidth="850" pageHeight="1100" math="0" shadow="0">
      <root>
        <mxCell id="Yu5U56hrXWREaVrE-pmL-0" />
        <mxCell id="Yu5U56hrXWREaVrE-pmL-1" parent="Yu5U56hrXWREaVrE-pmL-0" />
        <mxCell id="Yu5U56hrXWREaVrE-pmL-2" value="Training Set" style="rounded=1;whiteSpace=wrap;html=1;fillColor=#fff2cc;strokeColor=#d6b656;" vertex="1" parent="Yu5U56hrXWREaVrE-pmL-1">
          <mxGeometry x="150" y="310" width="590" height="30" as="geometry" />
        </mxCell>
        <mxCell id="Yu5U56hrXWREaVrE-pmL-3" value="Train" style="rounded=1;whiteSpace=wrap;html=1;fillColor=#ffe6cc;strokeColor=#d79b00;" vertex="1" parent="Yu5U56hrXWREaVrE-pmL-1">
          <mxGeometry x="150" y="360" width="110" height="30" as="geometry" />
        </mxCell>
        <mxCell id="Yu5U56hrXWREaVrE-pmL-4" value="Test" style="rounded=1;whiteSpace=wrap;html=1;fillColor=#dae8fc;strokeColor=#6c8ebf;" vertex="1" parent="Yu5U56hrXWREaVrE-pmL-1">
          <mxGeometry x="630" y="360" width="110" height="30" as="geometry" />
        </mxCell>
        <mxCell id="Yu5U56hrXWREaVrE-pmL-5" value="Train" style="rounded=1;whiteSpace=wrap;html=1;fillColor=#ffe6cc;strokeColor=#d79b00;" vertex="1" parent="Yu5U56hrXWREaVrE-pmL-1">
          <mxGeometry x="270" y="360" width="110" height="30" as="geometry" />
        </mxCell>
        <mxCell id="Yu5U56hrXWREaVrE-pmL-6" value="Train" style="rounded=1;whiteSpace=wrap;html=1;fillColor=#ffe6cc;strokeColor=#d79b00;" vertex="1" parent="Yu5U56hrXWREaVrE-pmL-1">
          <mxGeometry x="390" y="360" width="110" height="30" as="geometry" />
        </mxCell>
        <mxCell id="Yu5U56hrXWREaVrE-pmL-7" value="Train" style="rounded=1;whiteSpace=wrap;html=1;fillColor=#ffe6cc;strokeColor=#d79b00;" vertex="1" parent="Yu5U56hrXWREaVrE-pmL-1">
          <mxGeometry x="510" y="360" width="110" height="30" as="geometry" />
        </mxCell>
        <mxCell id="Yu5U56hrXWREaVrE-pmL-8" value="Test" style="rounded=1;whiteSpace=wrap;html=1;fillColor=#dae8fc;strokeColor=#6c8ebf;" vertex="1" parent="Yu5U56hrXWREaVrE-pmL-1">
          <mxGeometry x="510" y="400" width="110" height="30" as="geometry" />
        </mxCell>
        <mxCell id="Yu5U56hrXWREaVrE-pmL-9" value="Test" style="rounded=1;whiteSpace=wrap;html=1;fillColor=#dae8fc;strokeColor=#6c8ebf;" vertex="1" parent="Yu5U56hrXWREaVrE-pmL-1">
          <mxGeometry x="390" y="440" width="110" height="30" as="geometry" />
        </mxCell>
        <mxCell id="Yu5U56hrXWREaVrE-pmL-10" value="Test" style="rounded=1;whiteSpace=wrap;html=1;fillColor=#dae8fc;strokeColor=#6c8ebf;" vertex="1" parent="Yu5U56hrXWREaVrE-pmL-1">
          <mxGeometry x="270" y="480" width="110" height="30" as="geometry" />
        </mxCell>
        <mxCell id="Yu5U56hrXWREaVrE-pmL-11" value="Test" style="rounded=1;whiteSpace=wrap;html=1;fillColor=#dae8fc;strokeColor=#6c8ebf;" vertex="1" parent="Yu5U56hrXWREaVrE-pmL-1">
          <mxGeometry x="150" y="520" width="110" height="30" as="geometry" />
        </mxCell>
        <mxCell id="Yu5U56hrXWREaVrE-pmL-12" value="Train" style="rounded=1;whiteSpace=wrap;html=1;fillColor=#ffe6cc;strokeColor=#d79b00;" vertex="1" parent="Yu5U56hrXWREaVrE-pmL-1">
          <mxGeometry x="150" y="400" width="110" height="30" as="geometry" />
        </mxCell>
        <mxCell id="Yu5U56hrXWREaVrE-pmL-13" value="Train" style="rounded=1;whiteSpace=wrap;html=1;fillColor=#ffe6cc;strokeColor=#d79b00;" vertex="1" parent="Yu5U56hrXWREaVrE-pmL-1">
          <mxGeometry x="150" y="440" width="110" height="30" as="geometry" />
        </mxCell>
        <mxCell id="Yu5U56hrXWREaVrE-pmL-14" value="Train" style="rounded=1;whiteSpace=wrap;html=1;fillColor=#ffe6cc;strokeColor=#d79b00;" vertex="1" parent="Yu5U56hrXWREaVrE-pmL-1">
          <mxGeometry x="150" y="480" width="110" height="30" as="geometry" />
        </mxCell>
        <mxCell id="Yu5U56hrXWREaVrE-pmL-15" value="Train" style="rounded=1;whiteSpace=wrap;html=1;fillColor=#ffe6cc;strokeColor=#d79b00;" vertex="1" parent="Yu5U56hrXWREaVrE-pmL-1">
          <mxGeometry x="390" y="400" width="110" height="30" as="geometry" />
        </mxCell>
        <mxCell id="Yu5U56hrXWREaVrE-pmL-16" value="Train" style="rounded=1;whiteSpace=wrap;html=1;fillColor=#ffe6cc;strokeColor=#d79b00;" vertex="1" parent="Yu5U56hrXWREaVrE-pmL-1">
          <mxGeometry x="270" y="400" width="110" height="30" as="geometry" />
        </mxCell>
        <mxCell id="Yu5U56hrXWREaVrE-pmL-17" value="Train" style="rounded=1;whiteSpace=wrap;html=1;fillColor=#ffe6cc;strokeColor=#d79b00;" vertex="1" parent="Yu5U56hrXWREaVrE-pmL-1">
          <mxGeometry x="270" y="440" width="110" height="30" as="geometry" />
        </mxCell>
        <mxCell id="Yu5U56hrXWREaVrE-pmL-18" value="Train" style="rounded=1;whiteSpace=wrap;html=1;fillColor=#ffe6cc;strokeColor=#d79b00;" vertex="1" parent="Yu5U56hrXWREaVrE-pmL-1">
          <mxGeometry x="270" y="520" width="110" height="30" as="geometry" />
        </mxCell>
        <mxCell id="Yu5U56hrXWREaVrE-pmL-19" value="Train" style="rounded=1;whiteSpace=wrap;html=1;fillColor=#ffe6cc;strokeColor=#d79b00;" vertex="1" parent="Yu5U56hrXWREaVrE-pmL-1">
          <mxGeometry x="390" y="480" width="110" height="30" as="geometry" />
        </mxCell>
        <mxCell id="Yu5U56hrXWREaVrE-pmL-20" value="Train" style="rounded=1;whiteSpace=wrap;html=1;fillColor=#ffe6cc;strokeColor=#d79b00;" vertex="1" parent="Yu5U56hrXWREaVrE-pmL-1">
          <mxGeometry x="390" y="520" width="110" height="30" as="geometry" />
        </mxCell>
        <mxCell id="Yu5U56hrXWREaVrE-pmL-21" value="Train" style="rounded=1;whiteSpace=wrap;html=1;fillColor=#ffe6cc;strokeColor=#d79b00;" vertex="1" parent="Yu5U56hrXWREaVrE-pmL-1">
          <mxGeometry x="510" y="520" width="110" height="30" as="geometry" />
        </mxCell>
        <mxCell id="Yu5U56hrXWREaVrE-pmL-22" value="Train" style="rounded=1;whiteSpace=wrap;html=1;fillColor=#ffe6cc;strokeColor=#d79b00;" vertex="1" parent="Yu5U56hrXWREaVrE-pmL-1">
          <mxGeometry x="510" y="480" width="110" height="30" as="geometry" />
        </mxCell>
        <mxCell id="Yu5U56hrXWREaVrE-pmL-23" value="Train" style="rounded=1;whiteSpace=wrap;html=1;fillColor=#ffe6cc;strokeColor=#d79b00;" vertex="1" parent="Yu5U56hrXWREaVrE-pmL-1">
          <mxGeometry x="510" y="440" width="110" height="30" as="geometry" />
        </mxCell>
        <mxCell id="Yu5U56hrXWREaVrE-pmL-24" value="Train" style="rounded=1;whiteSpace=wrap;html=1;fillColor=#ffe6cc;strokeColor=#d79b00;" vertex="1" parent="Yu5U56hrXWREaVrE-pmL-1">
          <mxGeometry x="630" y="400" width="110" height="30" as="geometry" />
        </mxCell>
        <mxCell id="Yu5U56hrXWREaVrE-pmL-25" value="Train" style="rounded=1;whiteSpace=wrap;html=1;fillColor=#ffe6cc;strokeColor=#d79b00;" vertex="1" parent="Yu5U56hrXWREaVrE-pmL-1">
          <mxGeometry x="630" y="440" width="110" height="30" as="geometry" />
        </mxCell>
        <mxCell id="Yu5U56hrXWREaVrE-pmL-26" value="Train" style="rounded=1;whiteSpace=wrap;html=1;fillColor=#ffe6cc;strokeColor=#d79b00;" vertex="1" parent="Yu5U56hrXWREaVrE-pmL-1">
          <mxGeometry x="630" y="480" width="110" height="30" as="geometry" />
        </mxCell>
        <mxCell id="Yu5U56hrXWREaVrE-pmL-27" value="Train" style="rounded=1;whiteSpace=wrap;html=1;fillColor=#ffe6cc;strokeColor=#d79b00;" vertex="1" parent="Yu5U56hrXWREaVrE-pmL-1">
          <mxGeometry x="630" y="520" width="110" height="30" as="geometry" />
        </mxCell>
        <mxCell id="Yu5U56hrXWREaVrE-pmL-28" value="&lt;b&gt;Fold 1&lt;br&gt;&lt;/b&gt;" style="text;html=1;align=center;verticalAlign=middle;resizable=0;points=[];autosize=1;strokeColor=none;fillColor=none;" vertex="1" parent="Yu5U56hrXWREaVrE-pmL-1">
          <mxGeometry x="90" y="365" width="60" height="30" as="geometry" />
        </mxCell>
        <mxCell id="Yu5U56hrXWREaVrE-pmL-29" value="&lt;div&gt;&lt;b&gt;Fold 5&lt;/b&gt;&lt;/div&gt;" style="text;html=1;align=center;verticalAlign=middle;resizable=0;points=[];autosize=1;strokeColor=none;fillColor=none;" vertex="1" parent="Yu5U56hrXWREaVrE-pmL-1">
          <mxGeometry x="90" y="522" width="60" height="30" as="geometry" />
        </mxCell>
        <mxCell id="Yu5U56hrXWREaVrE-pmL-30" value="&lt;div&gt;&lt;b&gt;Fold 4&lt;/b&gt;&lt;/div&gt;" style="text;html=1;align=center;verticalAlign=middle;resizable=0;points=[];autosize=1;strokeColor=none;fillColor=none;" vertex="1" parent="Yu5U56hrXWREaVrE-pmL-1">
          <mxGeometry x="90" y="485" width="60" height="30" as="geometry" />
        </mxCell>
        <mxCell id="Yu5U56hrXWREaVrE-pmL-31" value="&lt;div&gt;&lt;b&gt;Fold 3&lt;br&gt;&lt;/b&gt;&lt;/div&gt;" style="text;html=1;align=center;verticalAlign=middle;resizable=0;points=[];autosize=1;strokeColor=none;fillColor=none;" vertex="1" parent="Yu5U56hrXWREaVrE-pmL-1">
          <mxGeometry x="90" y="446" width="60" height="30" as="geometry" />
        </mxCell>
        <mxCell id="Yu5U56hrXWREaVrE-pmL-32" value="&lt;div&gt;&lt;b&gt;Fold 2&lt;/b&gt;&lt;/div&gt;" style="text;html=1;align=center;verticalAlign=middle;resizable=0;points=[];autosize=1;strokeColor=none;fillColor=none;" vertex="1" parent="Yu5U56hrXWREaVrE-pmL-1">
          <mxGeometry x="90" y="405" width="60" height="30" as="geometry" />
        </mxCell>
        <mxCell id="IVokYOSbbQddzQXIM23f-0" value="Test Set" style="rounded=1;whiteSpace=wrap;html=1;fillColor=#e1d5e7;strokeColor=#9673a6;" vertex="1" parent="Yu5U56hrXWREaVrE-pmL-1">
          <mxGeometry x="750" y="310" width="180" height="30" as="geometry" />
        </mxCell>
      </root>
    </mxGraphModel>
  </diagram>
</mxfile>
